<?xml version="1.0" encoding="UTF-8" standalone="no"?>
<!DOCTYPE svg PUBLIC "-//W3C//DTD SVG 1.1//EN"
 "http://www.w3.org/Graphics/SVG/1.1/DTD/svg11.dtd">
<!-- Generated by graphviz version 2.36.0 (20140111.2315)
 -->
<!-- Title: messages Pages: 1 -->
<svg width="366pt" height="299pt"
 viewBox="0.00 0.00 366.00 299.00" xmlns="http://www.w3.org/2000/svg" xmlns:xlink="http://www.w3.org/1999/xlink">
<g id="graph0" class="graph" transform="scale(1 1) rotate(0) translate(4 295)">
<title>messages</title>
<polygon fill="white" stroke="none" points="-4,4 -4,-295 362,-295 362,4 -4,4"/>
<!-- 3225048 -->
<g id="node1" class="node"><title>3225048</title>
<g id="a_node1"><a xlink:href="tlf3225048.svg" xlink:title="create_message">
<ellipse fill="none" stroke="black" cx="97" cy="-273" rx="65.6803" ry="18"/>
<text text-anchor="middle" x="97" y="-268.8" font-family="Times,serif" font-size="14.00">create_message</text>
</a>
</g>
</g>
<!-- 3225032 -->
<g id="node2" class="node"><title>3225032</title>
<polygon fill="none" stroke="black" points="230.396,-0 230.396,-176 357.604,-176 357.604,-0 230.396,-0"/>
<text text-anchor="middle" x="294" y="-160.8" font-family="Times,serif" font-size="14.00">messages</text>
<polyline fill="none" stroke="black" points="230.396,-154 357.604,-154 "/>
<text text-anchor="middle" x="294" y="-138.8" font-family="Times,serif" font-size="14.00">sequential scans: 8</text>
<polyline fill="none" stroke="black" points="230.396,-132 357.604,-132 "/>
<text text-anchor="middle" x="294" y="-116.8" font-family="Times,serif" font-size="14.00">avg seq tuples: 0.88</text>
<polyline fill="none" stroke="black" points="230.396,-110 357.604,-110 "/>
<text text-anchor="middle" x="294" y="-94.8" font-family="Times,serif" font-size="14.00">index scans: 9</text>
<polyline fill="none" stroke="black" points="230.396,-88 357.604,-88 "/>
<text text-anchor="middle" x="294" y="-72.8" font-family="Times,serif" font-size="14.00">avg idx tuples: 1.00</text>
<polyline fill="none" stroke="black" points="230.396,-66 357.604,-66 "/>
<text text-anchor="middle" x="294" y="-50.8" font-family="Times,serif" font-size="14.00">inserted rows: 1</text>
<polyline fill="none" stroke="black" points="230.396,-44 357.604,-44 "/>
<text text-anchor="middle" x="294" y="-28.8" font-family="Times,serif" font-size="14.00">updated rows: 2</text>
<polyline fill="none" stroke="black" points="230.396,-22 357.604,-22 "/>
<text text-anchor="middle" x="294" y="-6.8" font-family="Times,serif" font-size="14.00">deleted rows: 0</text>
</g>
<!-- 3225048&#45;&gt;3225032 -->
<g id="edge1" class="edge"><title>3225048&#45;&gt;3225032:name</title>
<path fill="none" stroke="black" d="M156.383,-265.264C169.891,-261.25 183.396,-255.177 194,-246 220.764,-222.838 196.696,-175.913 220.101,-166.62"/>
<polygon fill="black" stroke="black" points="220.697,-170.069 230,-165 219.566,-163.161 220.697,-170.069"/>
</g>
<!-- 3225049 -->
<g id="node3" class="node"><title>3225049</title>
<g id="a_node3"><a xlink:href="tlf3225049.svg" xlink:title="get_message">
<ellipse fill="none" stroke="black" cx="97" cy="-219" rx="55.0836" ry="18"/>
<text text-anchor="middle" x="97" y="-214.8" font-family="Times,serif" font-size="14.00">get_message</text>
</a>
</g>
</g>
<!-- 3225049&#45;&gt;3225032 -->
<g id="edge2" class="edge"><title>3225049&#45;&gt;3225032:name</title>
<path fill="none" stroke="black" d="M144.694,-209.556C160.794,-205.349 178.633,-199.591 194,-192 208.289,-184.941 209.965,-171.987 220.177,-167.016"/>
<polygon fill="black" stroke="black" points="220.908,-170.439 230,-165 219.501,-163.582 220.908,-170.439"/>
</g>
<!-- 3225052 -->
<g id="node4" class="node"><title>3225052</title>
<g id="a_node4"><a xlink:href="tlf3225052.svg" xlink:title="decode_delivery_receipt">
<ellipse fill="none" stroke="black" cx="97" cy="-165" rx="97.043" ry="18"/>
<text text-anchor="middle" x="97" y="-160.8" font-family="Times,serif" font-size="14.00">decode_delivery_receipt</text>
</a>
</g>
</g>
<!-- 3225052&#45;&gt;3225032 -->
<g id="edge3" class="edge"><title>3225052&#45;&gt;3225032:name</title>
<path fill="none" stroke="black" d="M194.245,-165C202.803,-165 211.415,-165 219.837,-165"/>
<polygon fill="black" stroke="black" points="220,-168.5 230,-165 220,-161.5 220,-168.5"/>
</g>
<!-- 3225051 -->
<g id="node5" class="node"><title>3225051</title>
<g id="a_node5"><a xlink:href="tlf3225051.svg" xlink:title="read_message">
<ellipse fill="none" stroke="black" cx="97" cy="-111" rx="59.9097" ry="18"/>
<text text-anchor="middle" x="97" y="-106.8" font-family="Times,serif" font-size="14.00">read_message</text>
</a>
</g>
</g>
<!-- 3225051&#45;&gt;3225032 -->
<g id="edge4" class="edge"><title>3225051&#45;&gt;3225032:name</title>
<path fill="none" stroke="black" d="M147.146,-121.093C162.59,-125.237 179.409,-130.792 194,-138 208.289,-145.059 209.965,-158.013 220.177,-162.984"/>
<polygon fill="black" stroke="black" points="219.501,-166.418 230,-165 220.908,-159.561 219.501,-166.418"/>
</g>
<!-- 3225050 -->
<g id="node6" class="node"><title>3225050</title>
<g id="a_node6"><a xlink:href="tlf3225050.svg" xlink:title="receive_message">
<ellipse fill="none" stroke="black" cx="97" cy="-57" rx="70.0236" ry="18"/>
<text text-anchor="middle" x="97" y="-52.8" font-family="Times,serif" font-size="14.00">receive_message</text>
</a>
</g>
</g>
<!-- 3225050&#45;&gt;3225032 -->
<g id="edge5" class="edge"><title>3225050&#45;&gt;3225032:name</title>
<path fill="none" stroke="black" d="M158.884,-65.5033C171.547,-69.5119 184.05,-75.3895 194,-84 220.764,-107.162 196.696,-154.087 220.101,-163.38"/>
<polygon fill="black" stroke="black" points="219.566,-166.839 230,-165 220.697,-159.931 219.566,-166.839"/>
</g>
</g>
</svg>
