<?xml version="1.0" encoding="UTF-8" standalone="no"?>
<!DOCTYPE svg PUBLIC "-//W3C//DTD SVG 1.1//EN"
 "http://www.w3.org/Graphics/SVG/1.1/DTD/svg11.dtd">
<!-- Generated by graphviz version 2.36.0 (20140111.2315)
 -->
<!-- Title: files Pages: 1 -->
<svg width="364pt" height="245pt"
 viewBox="0.00 0.00 364.00 245.00" xmlns="http://www.w3.org/2000/svg" xmlns:xlink="http://www.w3.org/1999/xlink">
<g id="graph0" class="graph" transform="scale(1 1) rotate(0) translate(4 241)">
<title>files</title>
<polygon fill="white" stroke="none" points="-4,4 -4,-241 360,-241 360,4 -4,4"/>
<!-- 3225050 -->
<g id="node1" class="node"><title>3225050</title>
<g id="a_node1"><a xlink:href="tlf3225050.svg" xlink:title="receive_message">
<ellipse fill="none" stroke="black" cx="97" cy="-219" rx="70.0236" ry="18"/>
<text text-anchor="middle" x="97" y="-214.8" font-family="Times,serif" font-size="14.00">receive_message</text>
</a>
</g>
</g>
<!-- 3225023 -->
<g id="node2" class="node"><title>3225023</title>
<polygon fill="none" stroke="black" points="229.783,-0 229.783,-176 356.217,-176 356.217,-0 229.783,-0"/>
<text text-anchor="middle" x="293" y="-160.8" font-family="Times,serif" font-size="14.00">files</text>
<polyline fill="none" stroke="black" points="229.783,-154 356.217,-154 "/>
<text text-anchor="middle" x="293" y="-138.8" font-family="Times,serif" font-size="14.00">sequential scans: 0</text>
<polyline fill="none" stroke="black" points="229.783,-132 356.217,-132 "/>
<text text-anchor="middle" x="293" y="-116.8" font-family="Times,serif" font-size="14.00">avg seq tuples: 0</text>
<polyline fill="none" stroke="black" points="229.783,-110 356.217,-110 "/>
<text text-anchor="middle" x="293" y="-94.8" font-family="Times,serif" font-size="14.00">index scans: 11</text>
<polyline fill="none" stroke="black" points="229.783,-88 356.217,-88 "/>
<text text-anchor="middle" x="293" y="-72.8" font-family="Times,serif" font-size="14.00">avg idx tuples: 0.91</text>
<polyline fill="none" stroke="black" points="229.783,-66 356.217,-66 "/>
<text text-anchor="middle" x="293" y="-50.8" font-family="Times,serif" font-size="14.00">inserted rows: 1</text>
<polyline fill="none" stroke="black" points="229.783,-44 356.217,-44 "/>
<text text-anchor="middle" x="293" y="-28.8" font-family="Times,serif" font-size="14.00">updated rows: 0</text>
<polyline fill="none" stroke="black" points="229.783,-22 356.217,-22 "/>
<text text-anchor="middle" x="293" y="-6.8" font-family="Times,serif" font-size="14.00">deleted rows: 0</text>
</g>
<!-- 3225050&#45;&gt;3225023 -->
<g id="edge1" class="edge"><title>3225050&#45;&gt;3225023:name</title>
<path fill="none" stroke="black" d="M151.617,-207.678C165.79,-203.684 180.806,-198.518 194,-192 208.289,-184.941 209.965,-171.987 220.177,-167.016"/>
<polygon fill="black" stroke="black" points="220.908,-170.439 230,-165 219.501,-163.582 220.908,-170.439"/>
</g>
<!-- 3225052 -->
<g id="node3" class="node"><title>3225052</title>
<g id="a_node3"><a xlink:href="tlf3225052.svg" xlink:title="decode_delivery_receipt">
<ellipse fill="none" stroke="black" cx="97" cy="-165" rx="97.043" ry="18"/>
<text text-anchor="middle" x="97" y="-160.8" font-family="Times,serif" font-size="14.00">decode_delivery_receipt</text>
</a>
</g>
</g>
<!-- 3225052&#45;&gt;3225023 -->
<g id="edge2" class="edge"><title>3225052&#45;&gt;3225023:name</title>
<path fill="none" stroke="black" d="M194.245,-165C202.803,-165 211.415,-165 219.837,-165"/>
<polygon fill="black" stroke="black" points="220,-168.5 230,-165 220,-161.5 220,-168.5"/>
</g>
<!-- 3225048 -->
<g id="node4" class="node"><title>3225048</title>
<g id="a_node4"><a xlink:href="tlf3225048.svg" xlink:title="create_message">
<ellipse fill="none" stroke="black" cx="97" cy="-111" rx="65.6803" ry="18"/>
<text text-anchor="middle" x="97" y="-106.8" font-family="Times,serif" font-size="14.00">create_message</text>
</a>
</g>
</g>
<!-- 3225048&#45;&gt;3225023 -->
<g id="edge3" class="edge"><title>3225048&#45;&gt;3225023:name</title>
<path fill="none" stroke="black" d="M149.622,-121.766C164.373,-125.833 180.185,-131.175 194,-138 208.289,-145.059 209.965,-158.013 220.177,-162.984"/>
<polygon fill="black" stroke="black" points="219.501,-166.418 230,-165 220.908,-159.561 219.501,-166.418"/>
</g>
</g>
</svg>
