<?xml version="1.0" encoding="UTF-8" standalone="no"?>
<!DOCTYPE svg PUBLIC "-//W3C//DTD SVG 1.1//EN"
 "http://www.w3.org/Graphics/SVG/1.1/DTD/svg11.dtd">
<!-- Generated by graphviz version 2.36.0 (20140111.2315)
 -->
<!-- Title: keys Pages: 1 -->
<svg width="366pt" height="326pt"
 viewBox="0.00 0.00 366.00 326.00" xmlns="http://www.w3.org/2000/svg" xmlns:xlink="http://www.w3.org/1999/xlink">
<g id="graph0" class="graph" transform="scale(1 1) rotate(0) translate(4 322)">
<title>keys</title>
<polygon fill="white" stroke="none" points="-4,4 -4,-322 362,-322 362,4 -4,4"/>
<!-- 3225050 -->
<g id="node1" class="node"><title>3225050</title>
<g id="a_node1"><a xlink:href="tlf3225050.svg" xlink:title="receive_message">
<ellipse fill="none" stroke="black" cx="97" cy="-300" rx="70.0236" ry="18"/>
<text text-anchor="middle" x="97" y="-295.8" font-family="Times,serif" font-size="14.00">receive_message</text>
</a>
</g>
</g>
<!-- 3225005 -->
<g id="node2" class="node"><title>3225005</title>
<polygon fill="none" stroke="black" points="230.396,-0 230.396,-176 357.604,-176 357.604,-0 230.396,-0"/>
<text text-anchor="middle" x="294" y="-160.8" font-family="Times,serif" font-size="14.00">keys</text>
<polyline fill="none" stroke="black" points="230.396,-154 357.604,-154 "/>
<text text-anchor="middle" x="294" y="-138.8" font-family="Times,serif" font-size="14.00">sequential scans: 8</text>
<polyline fill="none" stroke="black" points="230.396,-132 357.604,-132 "/>
<text text-anchor="middle" x="294" y="-116.8" font-family="Times,serif" font-size="14.00">avg seq tuples: 2.00</text>
<polyline fill="none" stroke="black" points="230.396,-110 357.604,-110 "/>
<text text-anchor="middle" x="294" y="-94.8" font-family="Times,serif" font-size="14.00">index scans: 22</text>
<polyline fill="none" stroke="black" points="230.396,-88 357.604,-88 "/>
<text text-anchor="middle" x="294" y="-72.8" font-family="Times,serif" font-size="14.00">avg idx tuples: 1.00</text>
<polyline fill="none" stroke="black" points="230.396,-66 357.604,-66 "/>
<text text-anchor="middle" x="294" y="-50.8" font-family="Times,serif" font-size="14.00">inserted rows: 0</text>
<polyline fill="none" stroke="black" points="230.396,-44 357.604,-44 "/>
<text text-anchor="middle" x="294" y="-28.8" font-family="Times,serif" font-size="14.00">updated rows: 0</text>
<polyline fill="none" stroke="black" points="230.396,-22 357.604,-22 "/>
<text text-anchor="middle" x="294" y="-6.8" font-family="Times,serif" font-size="14.00">deleted rows: 0</text>
</g>
<!-- 3225050&#45;&gt;3225005 -->
<g id="edge1" class="edge"><title>3225050&#45;&gt;3225005:name</title>
<path fill="none" stroke="black" d="M160.015,-292.033C172.471,-287.988 184.602,-281.961 194,-273 227.757,-240.812 186.87,-176.186 219.915,-166.285"/>
<polygon fill="black" stroke="black" points="220.523,-169.736 230,-165 219.638,-162.792 220.523,-169.736"/>
</g>
<!-- 3225046 -->
<g id="node3" class="node"><title>3225046</title>
<g id="a_node3"><a xlink:href="tlf3225046.svg" xlink:title="encrypt_sign">
<ellipse fill="none" stroke="black" cx="97" cy="-246" rx="55.5768" ry="18"/>
<text text-anchor="middle" x="97" y="-241.8" font-family="Times,serif" font-size="14.00">encrypt_sign</text>
</a>
</g>
</g>
<!-- 3225046&#45;&gt;3225005 -->
<g id="edge2" class="edge"><title>3225046&#45;&gt;3225005:name</title>
<path fill="none" stroke="black" d="M148.364,-238.869C164.045,-234.881 180.695,-228.67 194,-219 213.869,-204.559 205.088,-175.554 219.855,-167.262"/>
<polygon fill="black" stroke="black" points="221.001,-170.592 230,-165 219.478,-163.76 221.001,-170.592"/>
</g>
<!-- 3225052 -->
<g id="node4" class="node"><title>3225052</title>
<g id="a_node4"><a xlink:href="tlf3225052.svg" xlink:title="decode_delivery_receipt">
<ellipse fill="none" stroke="black" cx="97" cy="-192" rx="97.043" ry="18"/>
<text text-anchor="middle" x="97" y="-187.8" font-family="Times,serif" font-size="14.00">decode_delivery_receipt</text>
</a>
</g>
</g>
<!-- 3225052&#45;&gt;3225005 -->
<g id="edge3" class="edge"><title>3225052&#45;&gt;3225005:name</title>
<path fill="none" stroke="black" d="M148.595,-176.686C169.918,-171.353 195.388,-166.406 219.678,-165.252"/>
<polygon fill="black" stroke="black" points="220.088,-168.743 230,-165 219.917,-161.745 220.088,-168.743"/>
</g>
<!-- 3225047 -->
<g id="node5" class="node"><title>3225047</title>
<g id="a_node5"><a xlink:href="tlf3225047.svg" xlink:title="decrypt_verify">
<ellipse fill="none" stroke="black" cx="97" cy="-138" rx="62.3234" ry="18"/>
<text text-anchor="middle" x="97" y="-133.8" font-family="Times,serif" font-size="14.00">decrypt_verify</text>
</a>
</g>
</g>
<!-- 3225047&#45;&gt;3225005 -->
<g id="edge4" class="edge"><title>3225047&#45;&gt;3225005:name</title>
<path fill="none" stroke="black" d="M140.058,-151.105C162.957,-157.231 192.197,-163.467 219.884,-164.758"/>
<polygon fill="black" stroke="black" points="219.919,-168.259 230,-165 220.087,-161.261 219.919,-168.259"/>
</g>
<!-- 3225048 -->
<g id="node6" class="node"><title>3225048</title>
<g id="a_node6"><a xlink:href="tlf3225048.svg" xlink:title="create_message">
<ellipse fill="none" stroke="black" cx="97" cy="-84" rx="65.6803" ry="18"/>
<text text-anchor="middle" x="97" y="-79.8" font-family="Times,serif" font-size="14.00">create_message</text>
</a>
</g>
</g>
<!-- 3225048&#45;&gt;3225005 -->
<g id="edge5" class="edge"><title>3225048&#45;&gt;3225005:name</title>
<path fill="none" stroke="black" d="M154.344,-92.7512C168.198,-96.7433 182.376,-102.552 194,-111 213.869,-125.441 205.088,-154.446 219.855,-162.738"/>
<polygon fill="black" stroke="black" points="219.478,-166.24 230,-165 221.001,-159.408 219.478,-166.24"/>
</g>
<!-- 3225051 -->
<g id="node7" class="node"><title>3225051</title>
<g id="a_node7"><a xlink:href="tlf3225051.svg" xlink:title="read_message">
<ellipse fill="none" stroke="black" cx="97" cy="-30" rx="59.9097" ry="18"/>
<text text-anchor="middle" x="97" y="-25.8" font-family="Times,serif" font-size="14.00">read_message</text>
</a>
</g>
</g>
<!-- 3225051&#45;&gt;3225005 -->
<g id="edge6" class="edge"><title>3225051&#45;&gt;3225005:name</title>
<path fill="none" stroke="black" d="M153.521,-36.0382C168.184,-40.01 182.973,-46.4861 194,-57 227.757,-89.188 186.87,-153.814 219.915,-163.715"/>
<polygon fill="black" stroke="black" points="219.638,-167.208 230,-165 220.523,-160.264 219.638,-167.208"/>
</g>
</g>
</svg>
