<?xml version="1.0" encoding="UTF-8" standalone="no"?>
<!DOCTYPE svg PUBLIC "-//W3C//DTD SVG 1.1//EN"
 "http://www.w3.org/Graphics/SVG/1.1/DTD/svg11.dtd">
<!-- Generated by graphviz version 2.36.0 (20140111.2315)
 -->
<!-- Title: processcallgraphbuffers Pages: 1 -->
<svg width="194pt" height="98pt"
 viewBox="0.00 0.00 194.00 98.00" xmlns="http://www.w3.org/2000/svg" xmlns:xlink="http://www.w3.org/1999/xlink">
<g id="graph0" class="graph" transform="scale(1 1) rotate(0) translate(4 94)">
<title>processcallgraphbuffers</title>
<polygon fill="white" stroke="none" points="-4,4 -4,-94 190,-94 190,4 -4,4"/>
<!-- 3224895 -->
<g id="node1" class="node"><title>3224895</title>
<g id="a_node1"><a xlink:href="r3224895.svg" xlink:title="callgraphs">
<polygon fill="none" stroke="black" points="185.533,-36 112.467,-36 112.467,-0 185.533,-0 185.533,-36"/>
<text text-anchor="middle" x="149" y="-13.8" font-family="Times,serif" font-size="14.00">callgraphs</text>
</a>
</g>
</g>
<!-- 3224921 -->
<g id="node2" class="node"><title>3224921</title>
<g id="a_node2"><a xlink:href="r3224921.svg" xlink:title="tableusage">
<polygon fill="none" stroke="black" points="75.5831,-90 0.416946,-90 0.416946,-54 75.5831,-54 75.5831,-90"/>
<text text-anchor="middle" x="38" y="-67.8" font-family="Times,serif" font-size="14.00">tableusage</text>
</a>
</g>
</g>
<!-- 3224908 -->
<g id="node3" class="node"><title>3224908</title>
<g id="a_node3"><a xlink:href="r3224908.svg" xlink:title="edges">
<polygon fill="none" stroke="black" points="65,-36 11,-36 11,-0 65,-0 65,-36"/>
<text text-anchor="middle" x="38" y="-13.8" font-family="Times,serif" font-size="14.00">edges</text>
</a>
</g>
</g>
<!-- 3224908&#45;&gt;3224895 -->
<g id="edge1" class="edge"><title>3224908&#45;&gt;3224895</title>
<path fill="none" stroke="black" d="M65.1082,-18C76.13,-18 89.3012,-18 101.865,-18"/>
<polygon fill="black" stroke="black" points="102.215,-21.5001 112.215,-18 102.215,-14.5001 102.215,-21.5001"/>
</g>
</g>
</svg>
