<?xml version="1.0" encoding="UTF-8" standalone="no"?>
<!DOCTYPE svg PUBLIC "-//W3C//DTD SVG 1.1//EN"
 "http://www.w3.org/Graphics/SVG/1.1/DTD/svg11.dtd">
<!-- Generated by graphviz version 2.36.0 (20140111.2315)
 -->
<!-- Title: graph1 Pages: 1 -->
<svg width="497pt" height="116pt"
 viewBox="0.00 0.00 497.00 116.00" xmlns="http://www.w3.org/2000/svg" xmlns:xlink="http://www.w3.org/1999/xlink">
<g id="graph0" class="graph" transform="scale(1 1) rotate(0) translate(4 112)">
<title>graph1</title>
<polygon fill="white" stroke="none" points="-4,4 -4,-112 493,-112 493,4 -4,4"/>
<!-- 3225052 -->
<g id="node1" class="node"><title>3225052</title>
<g id="a_node1"><a xlink:href="3225052.svg" xlink:title="decode_delivery_receipt">
<ellipse fill="none" stroke="black" stroke-width="2.5" cx="97" cy="-90" rx="97.0323" ry="18"/>
<text text-anchor="middle" x="97" y="-85.8" font-family="Times,serif" font-size="14.00">decode_delivery_receipt</text>
</a>
</g>
</g>
<!-- 3224995 -->
<g id="node2" class="node"><title>3224995</title>
<ellipse fill="none" stroke="black" stroke-dasharray="5,2" cx="282" cy="-18" rx="39.3534" ry="18"/>
<text text-anchor="middle" x="282" y="-13.8" font-family="Times,serif" font-size="14.00">dearmor</text>
</g>
<!-- 3225052&#45;&gt;3224995 -->
<g id="edge1" class="edge"><title>3225052&#45;&gt;3224995</title>
<path fill="none" stroke="black" d="M137.599,-73.6382C168.983,-61.7631 212.153,-45.4287 243.101,-33.7187"/>
<polygon fill="black" stroke="black" points="244.574,-36.9033 252.689,-30.0908 242.097,-30.3563 244.574,-36.9033"/>
</g>
<!-- 3225050 -->
<g id="node3" class="node"><title>3225050</title>
<g id="a_node3"><a xlink:href="3225050.svg" xlink:title="receive_message">
<ellipse fill="none" stroke="black" stroke-width="2.5" cx="282" cy="-90" rx="70.0177" ry="18"/>
<text text-anchor="middle" x="282" y="-85.8" font-family="Times,serif" font-size="14.00">receive_message</text>
</a>
</g>
</g>
<!-- 3225050&#45;&gt;3224995 -->
<g id="edge2" class="edge"><title>3225050&#45;&gt;3224995</title>
<path fill="none" stroke="black" d="M282,-71.6966C282,-63.9827 282,-54.7125 282,-46.1124"/>
<polygon fill="black" stroke="black" points="285.5,-46.1043 282,-36.1043 278.5,-46.1044 285.5,-46.1043"/>
</g>
<!-- 3225051 -->
<g id="node4" class="node"><title>3225051</title>
<g id="a_node4"><a xlink:href="3225051.svg" xlink:title="read_message">
<ellipse fill="none" stroke="black" stroke-width="2.5" cx="430" cy="-90" rx="59.5562" ry="18"/>
<text text-anchor="middle" x="430" y="-85.8" font-family="Times,serif" font-size="14.00">read_message</text>
</a>
</g>
</g>
<!-- 3225051&#45;&gt;3224995 -->
<g id="edge3" class="edge"><title>3225051&#45;&gt;3224995</title>
<path fill="none" stroke="black" d="M399.334,-74.496C375.61,-63.275 342.711,-47.7145 317.784,-35.925"/>
<polygon fill="black" stroke="black" points="319.193,-32.7198 308.657,-31.6081 316.2,-39.0477 319.193,-32.7198"/>
</g>
</g>
</svg>
