<?xml version="1.0" encoding="UTF-8" standalone="no"?>
<!DOCTYPE svg PUBLIC "-//W3C//DTD SVG 1.1//EN"
 "http://www.w3.org/Graphics/SVG/1.1/DTD/svg11.dtd">
<!-- Generated by graphviz version 2.36.0 (20140111.2315)
 -->
<!-- Title: graph1 Pages: 1 -->
<svg width="338pt" height="188pt"
 viewBox="0.00 0.00 338.00 188.00" xmlns="http://www.w3.org/2000/svg" xmlns:xlink="http://www.w3.org/1999/xlink">
<g id="graph0" class="graph" transform="scale(1 1) rotate(0) translate(4 184)">
<title>graph1</title>
<polygon fill="white" stroke="none" points="-4,4 -4,-184 334,-184 334,4 -4,4"/>
<!-- t3225048e3224946 -->
<g id="node1" class="node"><title>t3225048e3224946</title>
<g id="a_node1"><a xlink:href="perfunction/3224946.svg" xlink:title="digest">
<ellipse fill="none" stroke="black" cx="31" cy="-90" rx="31.3473" ry="18"/>
<text text-anchor="middle" x="31" y="-85.8" font-family="Times,serif" font-size="14.00">digest</text>
</a>
</g>
</g>
<!-- t3225048e3224947 -->
<g id="node2" class="node"><title>t3225048e3224947</title>
<g id="a_node2"><a xlink:href="perfunction/3224947.svg" xlink:title="digest">
<ellipse fill="none" stroke="black" cx="111" cy="-90" rx="31.3473" ry="18"/>
<text text-anchor="middle" x="111" y="-85.8" font-family="Times,serif" font-size="14.00">digest</text>
</a>
</g>
</g>
<!-- t3225048e3224977 -->
<g id="node3" class="node"><title>t3225048e3224977</title>
<g id="a_node3"><a xlink:href="perfunction/3224977.svg" xlink:title="pgp_pub_encrypt_sign_bytea">
<ellipse fill="none" stroke="black" cx="216" cy="-18" rx="114.601" ry="18"/>
<text text-anchor="middle" x="216" y="-13.8" font-family="Times,serif" font-size="14.00">pgp_pub_encrypt_sign_bytea</text>
</a>
</g>
</g>
<!-- t3225048e3225046 -->
<g id="node4" class="node"><title>t3225048e3225046</title>
<g id="a_node4"><a xlink:href="perfunction/3225046.svg" xlink:title="encrypt_sign">
<ellipse fill="none" stroke="black" cx="216" cy="-90" rx="55.1843" ry="18"/>
<text text-anchor="middle" x="216" y="-85.8" font-family="Times,serif" font-size="14.00">encrypt_sign</text>
</a>
</g>
</g>
<!-- t3225048e3225046&#45;&gt;t3225048e3224977 -->
<g id="edge1" class="edge"><title>t3225048e3225046&#45;&gt;t3225048e3224977</title>
<path fill="none" stroke="#e10000" stroke-width="4.92427" d="M216,-71.6966C216,-63.9827 216,-54.7125 216,-46.1124"/>
<polygon fill="#e10000" stroke="#e10000" stroke-width="4.92427" points="220.309,-46.1043 216,-36.1043 211.691,-46.1044 220.309,-46.1043"/>
</g>
<!-- t3225048e3225048 -->
<g id="node5" class="node"><title>t3225048e3225048</title>
<g id="a_node5"><a xlink:href="perfunction/3225048.svg" xlink:title="create_message">
<ellipse fill="none" stroke="black" cx="111" cy="-162" rx="65.3848" ry="18"/>
<text text-anchor="middle" x="111" y="-157.8" font-family="Times,serif" font-size="14.00">create_message</text>
</a>
</g>
</g>
<!-- t3225048e3225048&#45;&gt;t3225048e3224946 -->
<g id="edge2" class="edge"><title>t3225048e3225048&#45;&gt;t3225048e3224946</title>
<path fill="none" stroke="#d7d7d7" d="M92.0411,-144.411C81.0038,-134.753 66.9786,-122.481 55.156,-112.136"/>
<polygon fill="#d7d7d7" stroke="#d7d7d7" points="57.2173,-109.289 47.3868,-105.338 52.6078,-114.558 57.2173,-109.289"/>
</g>
<!-- t3225048e3225048&#45;&gt;t3225048e3224947 -->
<g id="edge3" class="edge"><title>t3225048e3225048&#45;&gt;t3225048e3224947</title>
<path fill="none" stroke="#d7d7d7" d="M111,-143.697C111,-135.983 111,-126.712 111,-118.112"/>
<polygon fill="#d7d7d7" stroke="#d7d7d7" points="114.5,-118.104 111,-108.104 107.5,-118.104 114.5,-118.104"/>
</g>
<!-- t3225048e3225048&#45;&gt;t3225048e3225046 -->
<g id="edge4" class="edge"><title>t3225048e3225048&#45;&gt;t3225048e3225046</title>
<path fill="none" stroke="#d2d2d2" stroke-width="5" d="M134.826,-145.116C149.427,-135.382 168.297,-122.802 184.167,-112.222"/>
<polygon fill="#d2d2d2" stroke="#d2d2d2" stroke-width="5" points="186.736,-115.767 192.63,-106.58 181.883,-108.487 186.736,-115.767"/>
</g>
</g>
</svg>
