<?xml version="1.0" encoding="UTF-8" standalone="no"?>
<!DOCTYPE svg PUBLIC "-//W3C//DTD SVG 1.1//EN"
 "http://www.w3.org/Graphics/SVG/1.1/DTD/svg11.dtd">
<!-- Generated by graphviz version 2.36.0 (20140111.2315)
 -->
<!-- Title: graph1 Pages: 1 -->
<svg width="667pt" height="188pt"
 viewBox="0.00 0.00 667.00 188.00" xmlns="http://www.w3.org/2000/svg" xmlns:xlink="http://www.w3.org/1999/xlink">
<g id="graph0" class="graph" transform="scale(1 1) rotate(0) translate(4 184)">
<title>graph1</title>
<polygon fill="white" stroke="none" points="-4,4 -4,-184 663,-184 663,4 -4,4"/>
<!-- t3225051e3224986 -->
<g id="node1" class="node"><title>t3225051e3224986</title>
<g id="a_node1"><a xlink:href="perfunction/3224986.svg" xlink:title="pgp_pub_decrypt_verify_bytea">
<ellipse fill="none" stroke="black" cx="121" cy="-18" rx="121.162" ry="18"/>
<text text-anchor="middle" x="121" y="-13.8" font-family="Times,serif" font-size="14.00">pgp_pub_decrypt_verify_bytea</text>
</a>
</g>
</g>
<!-- t3225051e3224989 -->
<g id="node2" class="node"><title>t3225051e3224989</title>
<g id="a_node2"><a xlink:href="perfunction/3224989.svg" xlink:title="pgp_key_id">
<ellipse fill="none" stroke="black" cx="312" cy="-18" rx="51.2958" ry="18"/>
<text text-anchor="middle" x="312" y="-13.8" font-family="Times,serif" font-size="14.00">pgp_key_id</text>
</a>
</g>
</g>
<!-- t3225051e3224992 -->
<g id="node3" class="node"><title>t3225051e3224992</title>
<g id="a_node3"><a xlink:href="perfunction/3224992.svg" xlink:title="pgp_pub_signature_keys">
<ellipse fill="none" stroke="black" cx="480" cy="-18" rx="98.2927" ry="18"/>
<text text-anchor="middle" x="480" y="-13.8" font-family="Times,serif" font-size="14.00">pgp_pub_signature_keys</text>
</a>
</g>
</g>
<!-- t3225051e3224994 -->
<g id="node4" class="node"><title>t3225051e3224994</title>
<g id="a_node4"><a xlink:href="perfunction/3224994.svg" xlink:title="armor">
<ellipse fill="none" stroke="black" cx="628" cy="-18" rx="31.3343" ry="18"/>
<text text-anchor="middle" x="628" y="-13.8" font-family="Times,serif" font-size="14.00">armor</text>
</a>
</g>
</g>
<!-- t3225051e3224995 -->
<g id="node5" class="node"><title>t3225051e3224995</title>
<g id="a_node5"><a xlink:href="perfunction/3224995.svg" xlink:title="dearmor">
<ellipse fill="none" stroke="black" cx="237" cy="-90" rx="39.3534" ry="18"/>
<text text-anchor="middle" x="237" y="-85.8" font-family="Times,serif" font-size="14.00">dearmor</text>
</a>
</g>
</g>
<!-- t3225051e3225047 -->
<g id="node6" class="node"><title>t3225051e3225047</title>
<g id="a_node6"><a xlink:href="perfunction/3225047.svg" xlink:title="decrypt_verify">
<ellipse fill="none" stroke="black" cx="357" cy="-90" rx="62.2425" ry="18"/>
<text text-anchor="middle" x="357" y="-85.8" font-family="Times,serif" font-size="14.00">decrypt_verify</text>
</a>
</g>
</g>
<!-- t3225051e3225047&#45;&gt;t3225051e3224986 -->
<g id="edge1" class="edge"><title>t3225051e3225047&#45;&gt;t3225051e3224986</title>
<path fill="none" stroke="#e10000" stroke-width="1.71337" d="M315.351,-76.6465C278.6,-65.7457 224.532,-49.7086 182.748,-37.3151"/>
<polygon fill="#e10000" stroke="#e10000" stroke-width="1.71337" points="183.533,-33.8974 172.951,-34.4092 181.543,-40.6084 183.533,-33.8974"/>
</g>
<!-- t3225051e3225047&#45;&gt;t3225051e3224989 -->
<g id="edge2" class="edge"><title>t3225051e3225047&#45;&gt;t3225051e3224989</title>
<path fill="none" stroke="#d7d7d7" d="M346.107,-72.055C340.745,-63.7147 334.173,-53.4908 328.233,-44.2517"/>
<polygon fill="#d7d7d7" stroke="#d7d7d7" points="331.145,-42.3081 322.793,-35.789 325.256,-46.0935 331.145,-42.3081"/>
</g>
<!-- t3225051e3225047&#45;&gt;t3225051e3224992 -->
<g id="edge3" class="edge"><title>t3225051e3225047&#45;&gt;t3225051e3224992</title>
<path fill="none" stroke="#cc0000" stroke-width="3.25234" d="M383.993,-73.6382C401.131,-63.885 423.554,-51.1236 442.42,-40.3869"/>
<polygon fill="#cc0000" stroke="#cc0000" stroke-width="3.25234" points="444.397,-43.2889 451.357,-35.3008 440.935,-37.2051 444.397,-43.2889"/>
</g>
<!-- t3225051e3225049 -->
<g id="node7" class="node"><title>t3225051e3225049</title>
<g id="a_node7"><a xlink:href="perfunction/3225049.svg" xlink:title="get_message">
<ellipse fill="none" stroke="black" cx="582" cy="-90" rx="54.9384" ry="18"/>
<text text-anchor="middle" x="582" y="-85.8" font-family="Times,serif" font-size="14.00">get_message</text>
</a>
</g>
</g>
<!-- t3225051e3225049&#45;&gt;t3225051e3224994 -->
<g id="edge4" class="edge"><title>t3225051e3225049&#45;&gt;t3225051e3224994</title>
<path fill="none" stroke="#d7d7d7" d="M593.135,-72.055C598.697,-63.592 605.533,-53.1897 611.673,-43.8447"/>
<polygon fill="#d7d7d7" stroke="#d7d7d7" points="614.717,-45.5862 617.284,-35.307 608.867,-41.7419 614.717,-45.5862"/>
</g>
<!-- t3225051e3225051 -->
<g id="node8" class="node"><title>t3225051e3225051</title>
<g id="a_node8"><a xlink:href="perfunction/3225051.svg" xlink:title="read_message">
<ellipse fill="none" stroke="black" cx="357" cy="-162" rx="59.5562" ry="18"/>
<text text-anchor="middle" x="357" y="-157.8" font-family="Times,serif" font-size="14.00">read_message</text>
</a>
</g>
</g>
<!-- t3225051e3225051&#45;&gt;t3225051e3224995 -->
<g id="edge5" class="edge"><title>t3225051e3225051&#45;&gt;t3225051e3224995</title>
<path fill="none" stroke="#d7d7d7" d="M330.962,-145.811C312.872,-135.258 288.64,-121.123 269.315,-109.851"/>
<polygon fill="#d7d7d7" stroke="#d7d7d7" points="270.948,-106.751 260.547,-104.736 267.421,-112.798 270.948,-106.751"/>
</g>
<!-- t3225051e3225051&#45;&gt;t3225051e3225047 -->
<g id="edge6" class="edge"><title>t3225051e3225051&#45;&gt;t3225051e3225047</title>
<path fill="none" stroke="#d1d1d1" stroke-width="5" d="M357,-143.697C357,-135.983 357,-126.712 357,-118.112"/>
<polygon fill="#d1d1d1" stroke="#d1d1d1" stroke-width="5" points="361.375,-118.104 357,-108.104 352.625,-118.104 361.375,-118.104"/>
</g>
<!-- t3225051e3225051&#45;&gt;t3225051e3225049 -->
<g id="edge7" class="edge"><title>t3225051e3225051&#45;&gt;t3225051e3225049</title>
<path fill="none" stroke="#d6d6d6" d="M396.966,-148.566C435.231,-136.661 493.014,-118.685 533.809,-105.993"/>
<polygon fill="#d6d6d6" stroke="#d6d6d6" points="535.024,-109.28 543.533,-102.968 532.945,-102.596 535.024,-109.28"/>
</g>
</g>
</svg>
