<?xml version="1.0" encoding="UTF-8" standalone="no"?>
<!DOCTYPE svg PUBLIC "-//W3C//DTD SVG 1.1//EN"
 "http://www.w3.org/Graphics/SVG/1.1/DTD/svg11.dtd">
<!-- Generated by graphviz version 2.36.0 (20140111.2315)
 -->
<!-- Title: graph1 Pages: 1 -->
<svg width="1034pt" height="188pt"
 viewBox="0.00 0.00 1034.00 188.00" xmlns="http://www.w3.org/2000/svg" xmlns:xlink="http://www.w3.org/1999/xlink">
<g id="graph0" class="graph" transform="scale(1 1) rotate(0) translate(4 184)">
<title>graph1</title>
<polygon fill="white" stroke="none" points="-4,4 -4,-184 1030,-184 1030,4 -4,4"/>
<!-- t3225050e3224946 -->
<g id="node1" class="node"><title>t3225050e3224946</title>
<g id="a_node1"><a xlink:href="perfunction/3224946.svg" xlink:title="digest">
<ellipse fill="none" stroke="black" cx="31" cy="-90" rx="31.3473" ry="18"/>
<text text-anchor="middle" x="31" y="-85.8" font-family="Times,serif" font-size="14.00">digest</text>
</a>
</g>
</g>
<!-- t3225050e3224947 -->
<g id="node2" class="node"><title>t3225050e3224947</title>
<g id="a_node2"><a xlink:href="perfunction/3224947.svg" xlink:title="digest">
<ellipse fill="none" stroke="black" cx="111" cy="-90" rx="31.3473" ry="18"/>
<text text-anchor="middle" x="111" y="-85.8" font-family="Times,serif" font-size="14.00">digest</text>
</a>
</g>
</g>
<!-- t3225050e3224977 -->
<g id="node3" class="node"><title>t3225050e3224977</title>
<g id="a_node3"><a xlink:href="perfunction/3224977.svg" xlink:title="pgp_pub_encrypt_sign_bytea">
<ellipse fill="none" stroke="black" cx="315" cy="-18" rx="114.601" ry="18"/>
<text text-anchor="middle" x="315" y="-13.8" font-family="Times,serif" font-size="14.00">pgp_pub_encrypt_sign_bytea</text>
</a>
</g>
</g>
<!-- t3225050e3224986 -->
<g id="node4" class="node"><title>t3225050e3224986</title>
<g id="a_node4"><a xlink:href="perfunction/3224986.svg" xlink:title="pgp_pub_decrypt_verify_bytea">
<ellipse fill="none" stroke="black" cx="569" cy="-18" rx="121.162" ry="18"/>
<text text-anchor="middle" x="569" y="-13.8" font-family="Times,serif" font-size="14.00">pgp_pub_decrypt_verify_bytea</text>
</a>
</g>
</g>
<!-- t3225050e3224989 -->
<g id="node5" class="node"><title>t3225050e3224989</title>
<g id="a_node5"><a xlink:href="perfunction/3224989.svg" xlink:title="pgp_key_id">
<ellipse fill="none" stroke="black" cx="760" cy="-18" rx="51.2958" ry="18"/>
<text text-anchor="middle" x="760" y="-13.8" font-family="Times,serif" font-size="14.00">pgp_key_id</text>
</a>
</g>
</g>
<!-- t3225050e3224992 -->
<g id="node6" class="node"><title>t3225050e3224992</title>
<g id="a_node6"><a xlink:href="perfunction/3224992.svg" xlink:title="pgp_pub_signature_keys">
<ellipse fill="none" stroke="black" cx="928" cy="-18" rx="98.2927" ry="18"/>
<text text-anchor="middle" x="928" y="-13.8" font-family="Times,serif" font-size="14.00">pgp_pub_signature_keys</text>
</a>
</g>
</g>
<!-- t3225050e3224994 -->
<g id="node7" class="node"><title>t3225050e3224994</title>
<g id="a_node7"><a xlink:href="perfunction/3224994.svg" xlink:title="armor">
<ellipse fill="none" stroke="black" cx="191" cy="-90" rx="31.3343" ry="18"/>
<text text-anchor="middle" x="191" y="-85.8" font-family="Times,serif" font-size="14.00">armor</text>
</a>
</g>
</g>
<!-- t3225050e3224995 -->
<g id="node8" class="node"><title>t3225050e3224995</title>
<g id="a_node8"><a xlink:href="perfunction/3224995.svg" xlink:title="dearmor">
<ellipse fill="none" stroke="black" cx="280" cy="-90" rx="39.3534" ry="18"/>
<text text-anchor="middle" x="280" y="-85.8" font-family="Times,serif" font-size="14.00">dearmor</text>
</a>
</g>
</g>
<!-- t3225050e3225046 -->
<g id="node9" class="node"><title>t3225050e3225046</title>
<g id="a_node9"><a xlink:href="perfunction/3225046.svg" xlink:title="encrypt_sign">
<ellipse fill="none" stroke="black" cx="393" cy="-90" rx="55.1843" ry="18"/>
<text text-anchor="middle" x="393" y="-85.8" font-family="Times,serif" font-size="14.00">encrypt_sign</text>
</a>
</g>
</g>
<!-- t3225050e3225046&#45;&gt;t3225050e3224977 -->
<g id="edge1" class="edge"><title>t3225050e3225046&#45;&gt;t3225050e3224977</title>
<path fill="none" stroke="#dd0000" d="M374.909,-72.7646C364.987,-63.8597 352.5,-52.6539 341.498,-42.7803"/>
<polygon fill="#dd0000" stroke="#dd0000" points="343.587,-39.9524 333.807,-35.8781 338.912,-45.1621 343.587,-39.9524"/>
</g>
<!-- t3225050e3225047 -->
<g id="node10" class="node"><title>t3225050e3225047</title>
<g id="a_node10"><a xlink:href="perfunction/3225047.svg" xlink:title="decrypt_verify">
<ellipse fill="none" stroke="black" cx="683" cy="-90" rx="62.2425" ry="18"/>
<text text-anchor="middle" x="683" y="-85.8" font-family="Times,serif" font-size="14.00">decrypt_verify</text>
</a>
</g>
</g>
<!-- t3225050e3225047&#45;&gt;t3225050e3224986 -->
<g id="edge2" class="edge"><title>t3225050e3225047&#45;&gt;t3225050e3224986</title>
<path fill="none" stroke="#db0000" stroke-width="1.64291" d="M657.7,-73.4647C642.171,-63.9294 622.039,-51.568 604.881,-41.0323"/>
<polygon fill="#db0000" stroke="#db0000" stroke-width="1.64291" points="606.573,-37.964 596.22,-35.7139 602.91,-43.9292 606.573,-37.964"/>
</g>
<!-- t3225050e3225047&#45;&gt;t3225050e3224989 -->
<g id="edge3" class="edge"><title>t3225050e3225047&#45;&gt;t3225050e3224989</title>
<path fill="none" stroke="#d7d7d7" d="M701.248,-72.411C711.268,-63.3017 723.847,-51.8664 734.792,-41.9163"/>
<polygon fill="#d7d7d7" stroke="#d7d7d7" points="737.368,-44.3047 742.413,-34.9881 732.659,-39.1251 737.368,-44.3047"/>
</g>
<!-- t3225050e3225047&#45;&gt;t3225050e3224992 -->
<g id="edge4" class="edge"><title>t3225050e3225047&#45;&gt;t3225050e3224992</title>
<path fill="none" stroke="#e10000" stroke-width="3.33018" d="M725.676,-76.8069C764.933,-65.5906 823.562,-48.8394 867.617,-36.2524"/>
<polygon fill="#e10000" stroke="#e10000" stroke-width="3.33018" points="868.694,-39.5848 877.347,-33.4722 866.771,-32.8541 868.694,-39.5848"/>
</g>
<!-- t3225050e3225050 -->
<g id="node11" class="node"><title>t3225050e3225050</title>
<g id="a_node11"><a xlink:href="perfunction/3225050.svg" xlink:title="receive_message">
<ellipse fill="none" stroke="black" cx="235" cy="-162" rx="70.0177" ry="18"/>
<text text-anchor="middle" x="235" y="-157.8" font-family="Times,serif" font-size="14.00">receive_message</text>
</a>
</g>
</g>
<!-- t3225050e3225050&#45;&gt;t3225050e3224946 -->
<g id="edge5" class="edge"><title>t3225050e3225050&#45;&gt;t3225050e3224946</title>
<path fill="none" stroke="#d7d7d7" d="M190.78,-147.882C157.562,-137.746 111.087,-122.962 71,-108 68.7931,-107.176 66.5295,-106.301 64.2561,-105.398"/>
<polygon fill="#d7d7d7" stroke="#d7d7d7" points="65.5539,-102.147 54.9733,-101.599 62.9027,-108.626 65.5539,-102.147"/>
</g>
<!-- t3225050e3225050&#45;&gt;t3225050e3224947 -->
<g id="edge6" class="edge"><title>t3225050e3225050&#45;&gt;t3225050e3224947</title>
<path fill="none" stroke="#d7d7d7" d="M207.172,-145.291C187.605,-134.245 161.434,-119.471 141.333,-108.124"/>
<polygon fill="#d7d7d7" stroke="#d7d7d7" points="142.999,-105.045 132.57,-103.177 139.558,-111.141 142.999,-105.045"/>
</g>
<!-- t3225050e3225050&#45;&gt;t3225050e3224994 -->
<g id="edge7" class="edge"><title>t3225050e3225050&#45;&gt;t3225050e3224994</title>
<path fill="none" stroke="#d7d7d7" d="M224.349,-144.055C219.029,-135.592 212.491,-125.19 206.617,-115.845"/>
<polygon fill="#d7d7d7" stroke="#d7d7d7" points="209.535,-113.911 201.25,-107.307 203.609,-117.636 209.535,-113.911"/>
</g>
<!-- t3225050e3225050&#45;&gt;t3225050e3224995 -->
<g id="edge8" class="edge"><title>t3225050e3225050&#45;&gt;t3225050e3224995</title>
<path fill="none" stroke="#d7d7d7" d="M245.893,-144.055C251.255,-135.715 257.827,-125.491 263.767,-116.252"/>
<polygon fill="#d7d7d7" stroke="#d7d7d7" points="266.744,-118.093 269.207,-107.789 260.855,-114.308 266.744,-118.093"/>
</g>
<!-- t3225050e3225050&#45;&gt;t3225050e3225046 -->
<g id="edge9" class="edge"><title>t3225050e3225050&#45;&gt;t3225050e3225046</title>
<path fill="none" stroke="#d5d5d5" d="M268.508,-146.155C293.034,-135.289 326.433,-120.492 352.463,-108.959"/>
<polygon fill="#d5d5d5" stroke="#d5d5d5" points="353.965,-112.122 361.69,-104.872 351.129,-105.722 353.965,-112.122"/>
</g>
<!-- t3225050e3225050&#45;&gt;t3225050e3225047 -->
<g id="edge10" class="edge"><title>t3225050e3225050&#45;&gt;t3225050e3225047</title>
<path fill="none" stroke="#d2d2d2" stroke-width="5" d="M293.109,-151.92C377.258,-138.772 532.466,-114.521 619.524,-100.918"/>
<polygon fill="#d2d2d2" stroke="#d2d2d2" stroke-width="5" points="620.331,-105.22 629.535,-99.3538 618.98,-96.5751 620.331,-105.22"/>
</g>
</g>
</svg>
