<?xml version="1.0" encoding="UTF-8" standalone="no"?>
<!DOCTYPE svg PUBLIC "-//W3C//DTD SVG 1.1//EN"
 "http://www.w3.org/Graphics/SVG/1.1/DTD/svg11.dtd">
<!-- Generated by graphviz version 2.36.0 (20140111.2315)
 -->
<!-- Title: graph1 Pages: 1 -->
<svg width="586pt" height="116pt"
 viewBox="0.00 0.00 586.00 116.00" xmlns="http://www.w3.org/2000/svg" xmlns:xlink="http://www.w3.org/1999/xlink">
<g id="graph0" class="graph" transform="scale(1 1) rotate(0) translate(4 112)">
<title>graph1</title>
<polygon fill="white" stroke="none" points="-4,4 -4,-112 582,-112 582,4 -4,4"/>
<!-- t3225047e3224986 -->
<g id="node1" class="node"><title>t3225047e3224986</title>
<g id="a_node1"><a xlink:href="perfunction/3224986.svg" xlink:title="pgp_pub_decrypt_verify_bytea">
<ellipse fill="none" stroke="black" cx="121" cy="-18" rx="121.162" ry="18"/>
<text text-anchor="middle" x="121" y="-13.8" font-family="Times,serif" font-size="14.00">pgp_pub_decrypt_verify_bytea</text>
</a>
</g>
</g>
<!-- t3225047e3224989 -->
<g id="node2" class="node"><title>t3225047e3224989</title>
<g id="a_node2"><a xlink:href="perfunction/3224989.svg" xlink:title="pgp_key_id">
<ellipse fill="none" stroke="black" cx="312" cy="-18" rx="51.2958" ry="18"/>
<text text-anchor="middle" x="312" y="-13.8" font-family="Times,serif" font-size="14.00">pgp_key_id</text>
</a>
</g>
</g>
<!-- t3225047e3224992 -->
<g id="node3" class="node"><title>t3225047e3224992</title>
<g id="a_node3"><a xlink:href="perfunction/3224992.svg" xlink:title="pgp_pub_signature_keys">
<ellipse fill="none" stroke="black" cx="480" cy="-18" rx="98.2927" ry="18"/>
<text text-anchor="middle" x="480" y="-13.8" font-family="Times,serif" font-size="14.00">pgp_pub_signature_keys</text>
</a>
</g>
</g>
<!-- t3225047e3225047 -->
<g id="node4" class="node"><title>t3225047e3225047</title>
<g id="a_node4"><a xlink:href="perfunction/3225047.svg" xlink:title="decrypt_verify">
<ellipse fill="none" stroke="black" cx="312" cy="-90" rx="62.2425" ry="18"/>
<text text-anchor="middle" x="312" y="-85.8" font-family="Times,serif" font-size="14.00">decrypt_verify</text>
</a>
</g>
</g>
<!-- t3225047e3225047&#45;&gt;t3225047e3224986 -->
<g id="edge1" class="edge"><title>t3225047e3225047&#45;&gt;t3225047e3224986</title>
<path fill="none" stroke="#e10000" stroke-width="2.75434" d="M275.173,-75.5033C246.487,-64.99 206.269,-50.2506 174.103,-38.4618"/>
<polygon fill="#e10000" stroke="#e10000" stroke-width="2.75434" points="174.994,-35.0609 164.401,-34.906 172.585,-41.6334 174.994,-35.0609"/>
</g>
<!-- t3225047e3225047&#45;&gt;t3225047e3224989 -->
<g id="edge2" class="edge"><title>t3225047e3225047&#45;&gt;t3225047e3224989</title>
<path fill="none" stroke="#d7d7d7" d="M312,-71.6966C312,-63.9827 312,-54.7125 312,-46.1124"/>
<polygon fill="#d7d7d7" stroke="#d7d7d7" points="315.5,-46.1043 312,-36.1043 308.5,-46.1044 315.5,-46.1043"/>
</g>
<!-- t3225047e3225047&#45;&gt;t3225047e3224992 -->
<g id="edge3" class="edge"><title>t3225047e3225047&#45;&gt;t3225047e3224992</title>
<path fill="none" stroke="#bb0000" stroke-width="5" d="M345.997,-74.8345C370.955,-64.4352 405.173,-50.1778 432.784,-38.6734"/>
<polygon fill="#bb0000" stroke="#bb0000" stroke-width="5" points="434.7,-42.6145 442.248,-34.7298 431.335,-34.5376 434.7,-42.6145"/>
</g>
</g>
</svg>
