<?xml version="1.0" encoding="UTF-8" standalone="no"?>
<!DOCTYPE svg PUBLIC "-//W3C//DTD SVG 1.1//EN"
 "http://www.w3.org/Graphics/SVG/1.1/DTD/svg11.dtd">
<!-- Generated by graphviz version 2.36.0 (20140111.2315)
 -->
<!-- Title: tableusage Pages: 1 -->
<svg width="360pt" height="191pt"
 viewBox="0.00 0.00 360.00 191.00" xmlns="http://www.w3.org/2000/svg" xmlns:xlink="http://www.w3.org/1999/xlink">
<g id="graph0" class="graph" transform="scale(1 1) rotate(0) translate(4 187)">
<title>tableusage</title>
<polygon fill="white" stroke="none" points="-4,4 -4,-187 356,-187 356,4 -4,4"/>
<!-- 3224943 -->
<g id="node1" class="node"><title>3224943</title>
<g id="a_node1"><a xlink:href="tlf3224943.svg" xlink:title="processcallgraphbuffers">
<ellipse fill="none" stroke="black" cx="95" cy="-165" rx="94.3355" ry="18"/>
<text text-anchor="middle" x="95" y="-160.8" font-family="Times,serif" font-size="14.00">processcallgraphbuffers</text>
</a>
</g>
</g>
<!-- 3224921 -->
<g id="node2" class="node"><title>3224921</title>
<polygon fill="none" stroke="black" points="225.783,-0 225.783,-176 352.217,-176 352.217,-0 225.783,-0"/>
<text text-anchor="middle" x="289" y="-160.8" font-family="Times,serif" font-size="14.00">tableusage</text>
<polyline fill="none" stroke="black" points="225.783,-154 352.217,-154 "/>
<text text-anchor="middle" x="289" y="-138.8" font-family="Times,serif" font-size="14.00">sequential scans: 0</text>
<polyline fill="none" stroke="black" points="225.783,-132 352.217,-132 "/>
<text text-anchor="middle" x="289" y="-116.8" font-family="Times,serif" font-size="14.00">avg seq tuples: 0</text>
<polyline fill="none" stroke="black" points="225.783,-110 352.217,-110 "/>
<text text-anchor="middle" x="289" y="-94.8" font-family="Times,serif" font-size="14.00">index scans: 4</text>
<polyline fill="none" stroke="black" points="225.783,-88 352.217,-88 "/>
<text text-anchor="middle" x="289" y="-72.8" font-family="Times,serif" font-size="14.00">avg idx tuples: 1.00</text>
<polyline fill="none" stroke="black" points="225.783,-66 352.217,-66 "/>
<text text-anchor="middle" x="289" y="-50.8" font-family="Times,serif" font-size="14.00">inserted rows: 3</text>
<polyline fill="none" stroke="black" points="225.783,-44 352.217,-44 "/>
<text text-anchor="middle" x="289" y="-28.8" font-family="Times,serif" font-size="14.00">updated rows: 2</text>
<polyline fill="none" stroke="black" points="225.783,-22 352.217,-22 "/>
<text text-anchor="middle" x="289" y="-6.8" font-family="Times,serif" font-size="14.00">deleted rows: 0</text>
</g>
<!-- 3224943&#45;&gt;3224921 -->
<g id="edge1" class="edge"><title>3224943&#45;&gt;3224921:name</title>
<path fill="none" stroke="black" d="M189.73,-165C198.5,-165 207.337,-165 215.972,-165"/>
<polygon fill="black" stroke="black" points="216,-168.5 226,-165 216,-161.5 216,-168.5"/>
</g>
</g>
</svg>
