<?xml version="1.0" encoding="UTF-8" standalone="no"?>
<!DOCTYPE svg PUBLIC "-//W3C//DTD SVG 1.1//EN"
 "http://www.w3.org/Graphics/SVG/1.1/DTD/svg11.dtd">
<!-- Generated by graphviz version 2.36.0 (20140111.2315)
 -->
<!-- Title: decode_delivery_receipt Pages: 1 -->
<svg width="168pt" height="98pt"
 viewBox="0.00 0.00 168.00 98.00" xmlns="http://www.w3.org/2000/svg" xmlns:xlink="http://www.w3.org/1999/xlink">
<g id="graph0" class="graph" transform="scale(1 1) rotate(0) translate(4 94)">
<title>decode_delivery_receipt</title>
<polygon fill="white" stroke="none" points="-4,4 -4,-94 164,-94 164,4 -4,4"/>
<!-- 3225023 -->
<g id="node1" class="node"><title>3225023</title>
<g id="a_node1"><a xlink:href="r3225023.svg" xlink:title="files">
<polygon fill="none" stroke="black" stroke-dasharray="5,2" points="160,-36 106,-36 106,-0 160,-0 160,-36"/>
<text text-anchor="middle" x="133" y="-13.8" font-family="Times,serif" font-size="14.00">files</text>
</a>
</g>
</g>
<!-- 3225032 -->
<g id="node2" class="node"><title>3225032</title>
<g id="a_node2"><a xlink:href="r3225032.svg" xlink:title="messages">
<polygon fill="none" stroke="black" points="69.3761,-36 0.623912,-36 0.623912,-0 69.3761,-0 69.3761,-36"/>
<text text-anchor="middle" x="35" y="-13.8" font-family="Times,serif" font-size="14.00">messages</text>
</a>
</g>
</g>
<!-- 3225032&#45;&gt;3225023 -->
<g id="edge1" class="edge"><title>3225032&#45;&gt;3225023</title>
<path fill="none" stroke="black" d="M69.5761,-18C78.033,-18 87.1483,-18 95.7306,-18"/>
<polygon fill="black" stroke="black" points="95.8548,-21.5001 105.855,-18 95.8547,-14.5001 95.8548,-21.5001"/>
</g>
<!-- 3225005 -->
<g id="node3" class="node"><title>3225005</title>
<g id="a_node3"><a xlink:href="r3225005.svg" xlink:title="keys">
<polygon fill="none" stroke="black" stroke-dasharray="5,2" points="62,-90 8,-90 8,-54 62,-54 62,-90"/>
<text text-anchor="middle" x="35" y="-67.8" font-family="Times,serif" font-size="14.00">keys</text>
</a>
</g>
</g>
</g>
</svg>
