<?xml version="1.0" encoding="UTF-8" standalone="no"?>
<!DOCTYPE svg PUBLIC "-//W3C//DTD SVG 1.1//EN"
 "http://www.w3.org/Graphics/SVG/1.1/DTD/svg11.dtd">
<!-- Generated by graphviz version 2.36.0 (20140111.2315)
 -->
<!-- Title: graph1 Pages: 1 -->
<svg width="497pt" height="188pt"
 viewBox="0.00 0.00 497.00 188.00" xmlns="http://www.w3.org/2000/svg" xmlns:xlink="http://www.w3.org/1999/xlink">
<g id="graph0" class="graph" transform="scale(1 1) rotate(0) translate(4 184)">
<title>graph1</title>
<polygon fill="white" stroke="none" points="-4,4 -4,-184 493,-184 493,4 -4,4"/>
<!-- 3225047 -->
<g id="node1" class="node"><title>3225047</title>
<g id="a_node1"><a xlink:href="3225047.svg" xlink:title="decrypt_verify">
<ellipse fill="none" stroke="black" stroke-width="2.5" cx="282" cy="-90" rx="62.2425" ry="18"/>
<text text-anchor="middle" x="282" y="-85.8" font-family="Times,serif" font-size="14.00">decrypt_verify</text>
</a>
</g>
</g>
<!-- 3224992 -->
<g id="node2" class="node"><title>3224992</title>
<ellipse fill="none" stroke="black" stroke-dasharray="5,2" cx="282" cy="-18" rx="98.2927" ry="18"/>
<text text-anchor="middle" x="282" y="-13.8" font-family="Times,serif" font-size="14.00">pgp_pub_signature_keys</text>
</g>
<!-- 3225047&#45;&gt;3224992 -->
<g id="edge1" class="edge"><title>3225047&#45;&gt;3224992</title>
<path fill="none" stroke="black" d="M282,-71.6966C282,-63.9827 282,-54.7125 282,-46.1124"/>
<polygon fill="black" stroke="black" points="285.5,-46.1043 282,-36.1043 278.5,-46.1044 285.5,-46.1043"/>
</g>
<!-- 3225052 -->
<g id="node3" class="node"><title>3225052</title>
<g id="a_node3"><a xlink:href="3225052.svg" xlink:title="decode_delivery_receipt">
<ellipse fill="none" stroke="black" stroke-width="2.5" cx="97" cy="-162" rx="97.0323" ry="18"/>
<text text-anchor="middle" x="97" y="-157.8" font-family="Times,serif" font-size="14.00">decode_delivery_receipt</text>
</a>
</g>
</g>
<!-- 3225052&#45;&gt;3225047 -->
<g id="edge2" class="edge"><title>3225052&#45;&gt;3225047</title>
<path fill="none" stroke="black" d="M137.599,-145.638C166.776,-134.598 206.138,-119.704 236.397,-108.255"/>
<polygon fill="black" stroke="black" points="237.763,-111.481 245.877,-104.668 235.286,-104.934 237.763,-111.481"/>
</g>
<!-- 3225050 -->
<g id="node4" class="node"><title>3225050</title>
<g id="a_node4"><a xlink:href="3225050.svg" xlink:title="receive_message">
<ellipse fill="none" stroke="black" stroke-width="2.5" cx="282" cy="-162" rx="70.0177" ry="18"/>
<text text-anchor="middle" x="282" y="-157.8" font-family="Times,serif" font-size="14.00">receive_message</text>
</a>
</g>
</g>
<!-- 3225050&#45;&gt;3225047 -->
<g id="edge3" class="edge"><title>3225050&#45;&gt;3225047</title>
<path fill="none" stroke="black" d="M282,-143.697C282,-135.983 282,-126.712 282,-118.112"/>
<polygon fill="black" stroke="black" points="285.5,-118.104 282,-108.104 278.5,-118.104 285.5,-118.104"/>
</g>
<!-- 3225051 -->
<g id="node5" class="node"><title>3225051</title>
<g id="a_node5"><a xlink:href="3225051.svg" xlink:title="read_message">
<ellipse fill="none" stroke="black" stroke-width="2.5" cx="430" cy="-162" rx="59.5562" ry="18"/>
<text text-anchor="middle" x="430" y="-157.8" font-family="Times,serif" font-size="14.00">read_message</text>
</a>
</g>
</g>
<!-- 3225051&#45;&gt;3225047 -->
<g id="edge4" class="edge"><title>3225051&#45;&gt;3225047</title>
<path fill="none" stroke="black" d="M399.334,-146.496C377.06,-135.961 346.698,-121.6 322.44,-110.127"/>
<polygon fill="black" stroke="black" points="323.672,-106.838 313.136,-105.726 320.679,-113.166 323.672,-106.838"/>
</g>
</g>
</svg>
