<?xml version="1.0" encoding="UTF-8" standalone="no"?>
<!DOCTYPE svg PUBLIC "-//W3C//DTD SVG 1.1//EN"
 "http://www.w3.org/Graphics/SVG/1.1/DTD/svg11.dtd">
<!-- Generated by graphviz version 2.36.0 (20140111.2315)
 -->
<!-- Title: graph1 Pages: 1 -->
<svg width="297pt" height="116pt"
 viewBox="0.00 0.00 297.00 116.00" xmlns="http://www.w3.org/2000/svg" xmlns:xlink="http://www.w3.org/1999/xlink">
<g id="graph0" class="graph" transform="scale(1 1) rotate(0) translate(4 112)">
<title>graph1</title>
<polygon fill="white" stroke="none" points="-4,4 -4,-112 293,-112 293,4 -4,4"/>
<!-- 3225048 -->
<g id="node1" class="node"><title>3225048</title>
<g id="a_node1"><a xlink:href="3225048.svg" xlink:title="create_message">
<ellipse fill="none" stroke="black" stroke-width="2.5" cx="65" cy="-90" rx="65.3848" ry="18"/>
<text text-anchor="middle" x="65" y="-85.8" font-family="Times,serif" font-size="14.00">create_message</text>
</a>
</g>
</g>
<!-- 3224947 -->
<g id="node2" class="node"><title>3224947</title>
<ellipse fill="none" stroke="black" stroke-dasharray="5,2" cx="142" cy="-18" rx="31.3473" ry="18"/>
<text text-anchor="middle" x="142" y="-13.8" font-family="Times,serif" font-size="14.00">digest</text>
</g>
<!-- 3225048&#45;&gt;3224947 -->
<g id="edge1" class="edge"><title>3225048&#45;&gt;3224947</title>
<path fill="none" stroke="black" d="M83.2479,-72.411C93.799,-62.8191 107.187,-50.6481 118.517,-40.3479"/>
<polygon fill="black" stroke="black" points="120.927,-42.887 125.972,-33.5705 116.219,-37.7074 120.927,-42.887"/>
</g>
<!-- 3225050 -->
<g id="node3" class="node"><title>3225050</title>
<g id="a_node3"><a xlink:href="3225050.svg" xlink:title="receive_message">
<ellipse fill="none" stroke="black" stroke-width="2.5" cx="219" cy="-90" rx="70.0177" ry="18"/>
<text text-anchor="middle" x="219" y="-85.8" font-family="Times,serif" font-size="14.00">receive_message</text>
</a>
</g>
</g>
<!-- 3225050&#45;&gt;3224947 -->
<g id="edge2" class="edge"><title>3225050&#45;&gt;3224947</title>
<path fill="none" stroke="black" d="M200.752,-72.411C190.201,-62.8191 176.813,-50.6481 165.483,-40.3479"/>
<polygon fill="black" stroke="black" points="167.781,-37.7074 158.028,-33.5705 163.073,-42.887 167.781,-37.7074"/>
</g>
</g>
</svg>
