<?xml version="1.0" encoding="UTF-8" standalone="no"?>
<!DOCTYPE svg PUBLIC "-//W3C//DTD SVG 1.1//EN"
 "http://www.w3.org/Graphics/SVG/1.1/DTD/svg11.dtd">
<!-- Generated by graphviz version 2.36.0 (20140111.2315)
 -->
<!-- Title: graph1 Pages: 1 -->
<svg width="280pt" height="188pt"
 viewBox="0.00 0.00 280.00 188.00" xmlns="http://www.w3.org/2000/svg" xmlns:xlink="http://www.w3.org/1999/xlink">
<g id="graph0" class="graph" transform="scale(1 1) rotate(0) translate(4 184)">
<title>graph1</title>
<polygon fill="white" stroke="none" points="-4,4 -4,-184 276,-184 276,4 -4,4"/>
<!-- 3225050 -->
<g id="node1" class="node"><title>3225050</title>
<g id="a_node1"><a xlink:href="3225050.svg" xlink:title="receive_message">
<ellipse fill="none" stroke="black" stroke-width="2.5" cx="70" cy="-90" rx="70.0177" ry="18"/>
<text text-anchor="middle" x="70" y="-85.8" font-family="Times,serif" font-size="14.00">receive_message</text>
</a>
</g>
</g>
<!-- 3224994 -->
<g id="node2" class="node"><title>3224994</title>
<ellipse fill="none" stroke="black" stroke-dasharray="5,2" cx="141" cy="-18" rx="31.3343" ry="18"/>
<text text-anchor="middle" x="141" y="-13.8" font-family="Times,serif" font-size="14.00">armor</text>
</g>
<!-- 3225050&#45;&gt;3224994 -->
<g id="edge1" class="edge"><title>3225050&#45;&gt;3224994</title>
<path fill="none" stroke="black" d="M86.826,-72.411C96.3294,-63.0414 108.329,-51.211 118.618,-41.0672"/>
<polygon fill="black" stroke="black" points="121.083,-43.5514 125.747,-34.0382 116.169,-38.5666 121.083,-43.5514"/>
</g>
<!-- 3225049 -->
<g id="node3" class="node"><title>3225049</title>
<g id="a_node3"><a xlink:href="3225049.svg" xlink:title="get_message">
<ellipse fill="none" stroke="black" stroke-width="2.5" cx="213" cy="-90" rx="54.9384" ry="18"/>
<text text-anchor="middle" x="213" y="-85.8" font-family="Times,serif" font-size="14.00">get_message</text>
</a>
</g>
</g>
<!-- 3225049&#45;&gt;3224994 -->
<g id="edge2" class="edge"><title>3225049&#45;&gt;3224994</title>
<path fill="none" stroke="black" d="M196.301,-72.7646C186.673,-63.4047 174.431,-51.5028 163.914,-41.2777"/>
<polygon fill="black" stroke="black" points="166.233,-38.6503 156.623,-34.189 161.353,-43.6693 166.233,-38.6503"/>
</g>
<!-- 3225051 -->
<g id="node4" class="node"><title>3225051</title>
<g id="a_node4"><a xlink:href="3225051.svg" xlink:title="read_message">
<ellipse fill="none" stroke="black" stroke-width="2.5" cx="213" cy="-162" rx="59.5562" ry="18"/>
<text text-anchor="middle" x="213" y="-157.8" font-family="Times,serif" font-size="14.00">read_message</text>
</a>
</g>
</g>
<!-- 3225051&#45;&gt;3225049 -->
<g id="edge3" class="edge"><title>3225051&#45;&gt;3225049</title>
<path fill="none" stroke="black" d="M213,-143.697C213,-135.983 213,-126.712 213,-118.112"/>
<polygon fill="black" stroke="black" points="216.5,-118.104 213,-108.104 209.5,-118.104 216.5,-118.104"/>
</g>
</g>
</svg>
