<?xml version="1.0" encoding="UTF-8" standalone="no"?>
<!DOCTYPE svg PUBLIC "-//W3C//DTD SVG 1.1//EN"
 "http://www.w3.org/Graphics/SVG/1.1/DTD/svg11.dtd">
<!-- Generated by graphviz version 2.36.0 (20140111.2315)
 -->
<!-- Title: graph1 Pages: 1 -->
<svg width="338pt" height="188pt"
 viewBox="0.00 0.00 338.00 188.00" xmlns="http://www.w3.org/2000/svg" xmlns:xlink="http://www.w3.org/1999/xlink">
<g id="graph0" class="graph" transform="scale(1 1) rotate(0) translate(4 184)">
<title>graph1</title>
<polygon fill="white" stroke="none" points="-4,4 -4,-184 334,-184 334,4 -4,4"/>
<!-- 3225048 -->
<g id="node1" class="node"><title>3225048</title>
<ellipse fill="none" stroke="black" stroke-dasharray="5,2" cx="219" cy="-162" rx="65.3848" ry="18"/>
<text text-anchor="middle" x="219" y="-157.8" font-family="Times,serif" font-size="14.00">create_message</text>
</g>
<!-- 3225046 -->
<g id="node2" class="node"><title>3225046</title>
<g id="a_node2"><a xlink:href="3225046.svg" xlink:title="encrypt_sign">
<ellipse fill="none" stroke="black" stroke-width="2.5" cx="114" cy="-90" rx="55.1843" ry="18"/>
<text text-anchor="middle" x="114" y="-85.8" font-family="Times,serif" font-size="14.00">encrypt_sign</text>
</a>
</g>
</g>
<!-- 3225048&#45;&gt;3225046 -->
<g id="edge1" class="edge"><title>3225048&#45;&gt;3225046</title>
<path fill="none" stroke="black" d="M195.174,-145.116C180.573,-135.382 161.703,-122.802 145.833,-112.222"/>
<polygon fill="black" stroke="black" points="147.632,-109.215 137.37,-106.58 143.749,-115.039 147.632,-109.215"/>
</g>
<!-- 3224946 -->
<g id="node3" class="node"><title>3224946</title>
<g id="a_node3"><a xlink:href="3224946.svg" xlink:title="digest">
<ellipse fill="none" stroke="black" cx="219" cy="-90" rx="31.3473" ry="18"/>
<text text-anchor="middle" x="219" y="-85.8" font-family="Times,serif" font-size="14.00">digest</text>
</a>
</g>
</g>
<!-- 3225048&#45;&gt;3224946 -->
<g id="edge2" class="edge"><title>3225048&#45;&gt;3224946</title>
<path fill="none" stroke="black" d="M219,-143.697C219,-135.983 219,-126.712 219,-118.112"/>
<polygon fill="black" stroke="black" points="222.5,-118.104 219,-108.104 215.5,-118.104 222.5,-118.104"/>
</g>
<!-- 3224947 -->
<g id="node4" class="node"><title>3224947</title>
<g id="a_node4"><a xlink:href="3224947.svg" xlink:title="digest">
<ellipse fill="none" stroke="black" cx="299" cy="-90" rx="31.3473" ry="18"/>
<text text-anchor="middle" x="299" y="-85.8" font-family="Times,serif" font-size="14.00">digest</text>
</a>
</g>
</g>
<!-- 3225048&#45;&gt;3224947 -->
<g id="edge3" class="edge"><title>3225048&#45;&gt;3224947</title>
<path fill="none" stroke="black" d="M237.959,-144.411C248.996,-134.753 263.021,-122.481 274.844,-112.136"/>
<polygon fill="black" stroke="black" points="277.392,-114.558 282.613,-105.338 272.783,-109.289 277.392,-114.558"/>
</g>
<!-- 3224977 -->
<g id="node5" class="node"><title>3224977</title>
<g id="a_node5"><a xlink:href="3224977.svg" xlink:title="pgp_pub_encrypt_sign_bytea">
<ellipse fill="none" stroke="black" cx="114" cy="-18" rx="114.601" ry="18"/>
<text text-anchor="middle" x="114" y="-13.8" font-family="Times,serif" font-size="14.00">pgp_pub_encrypt_sign_bytea</text>
</a>
</g>
</g>
<!-- 3225046&#45;&gt;3224977 -->
<g id="edge4" class="edge"><title>3225046&#45;&gt;3224977</title>
<path fill="none" stroke="black" d="M114,-71.6966C114,-63.9827 114,-54.7125 114,-46.1124"/>
<polygon fill="black" stroke="black" points="117.5,-46.1043 114,-36.1043 110.5,-46.1044 117.5,-46.1043"/>
</g>
</g>
</svg>
