<?xml version="1.0" encoding="UTF-8" standalone="no"?>
<!DOCTYPE svg PUBLIC "-//W3C//DTD SVG 1.1//EN"
 "http://www.w3.org/Graphics/SVG/1.1/DTD/svg11.dtd">
<!-- Generated by graphviz version 2.36.0 (20140111.2315)
 -->
<!-- Title: graph1 Pages: 1 -->
<svg width="586pt" height="188pt"
 viewBox="0.00 0.00 586.00 188.00" xmlns="http://www.w3.org/2000/svg" xmlns:xlink="http://www.w3.org/1999/xlink">
<g id="graph0" class="graph" transform="scale(1 1) rotate(0) translate(4 184)">
<title>graph1</title>
<polygon fill="white" stroke="none" points="-4,4 -4,-184 582,-184 582,4 -4,4"/>
<!-- 3225052 -->
<g id="node1" class="node"><title>3225052</title>
<g id="a_node1"><a xlink:href="3225052.svg" xlink:title="decode_delivery_receipt">
<ellipse fill="none" stroke="black" stroke-width="2.5" cx="174" cy="-162" rx="97.0323" ry="18"/>
<text text-anchor="middle" x="174" y="-157.8" font-family="Times,serif" font-size="14.00">decode_delivery_receipt</text>
</a>
</g>
</g>
<!-- 3225047 -->
<g id="node2" class="node"><title>3225047</title>
<ellipse fill="none" stroke="black" stroke-dasharray="5,2" cx="359" cy="-90" rx="62.2425" ry="18"/>
<text text-anchor="middle" x="359" y="-85.8" font-family="Times,serif" font-size="14.00">decrypt_verify</text>
</g>
<!-- 3225052&#45;&gt;3225047 -->
<g id="edge1" class="edge"><title>3225052&#45;&gt;3225047</title>
<path fill="none" stroke="black" d="M214.599,-145.638C243.776,-134.598 283.138,-119.704 313.397,-108.255"/>
<polygon fill="black" stroke="black" points="314.763,-111.481 322.877,-104.668 312.286,-104.934 314.763,-111.481"/>
</g>
<!-- 3224986 -->
<g id="node5" class="node"><title>3224986</title>
<g id="a_node5"><a xlink:href="3224986.svg" xlink:title="pgp_pub_decrypt_verify_bytea">
<ellipse fill="none" stroke="black" cx="121" cy="-18" rx="121.162" ry="18"/>
<text text-anchor="middle" x="121" y="-13.8" font-family="Times,serif" font-size="14.00">pgp_pub_decrypt_verify_bytea</text>
</a>
</g>
</g>
<!-- 3225047&#45;&gt;3224986 -->
<g id="edge4" class="edge"><title>3225047&#45;&gt;3224986</title>
<path fill="none" stroke="black" d="M316.998,-76.6465C279.733,-65.6863 224.814,-49.5336 182.583,-37.1128"/>
<polygon fill="black" stroke="black" points="183.541,-33.7463 172.96,-34.2824 181.566,-40.4619 183.541,-33.7463"/>
</g>
<!-- 3224992 -->
<g id="node6" class="node"><title>3224992</title>
<g id="a_node6"><a xlink:href="3224992.svg" xlink:title="pgp_pub_signature_keys">
<ellipse fill="none" stroke="black" cx="359" cy="-18" rx="98.2927" ry="18"/>
<text text-anchor="middle" x="359" y="-13.8" font-family="Times,serif" font-size="14.00">pgp_pub_signature_keys</text>
</a>
</g>
</g>
<!-- 3225047&#45;&gt;3224992 -->
<g id="edge5" class="edge"><title>3225047&#45;&gt;3224992</title>
<path fill="none" stroke="black" d="M359,-71.6966C359,-63.9827 359,-54.7125 359,-46.1124"/>
<polygon fill="black" stroke="black" points="362.5,-46.1043 359,-36.1043 355.5,-46.1044 362.5,-46.1043"/>
</g>
<!-- 3224989 -->
<g id="node7" class="node"><title>3224989</title>
<g id="a_node7"><a xlink:href="3224989.svg" xlink:title="pgp_key_id">
<ellipse fill="none" stroke="black" cx="527" cy="-18" rx="51.2958" ry="18"/>
<text text-anchor="middle" x="527" y="-13.8" font-family="Times,serif" font-size="14.00">pgp_key_id</text>
</a>
</g>
</g>
<!-- 3225047&#45;&gt;3224989 -->
<g id="edge6" class="edge"><title>3225047&#45;&gt;3224989</title>
<path fill="none" stroke="black" d="M392.997,-74.8345C419.873,-63.6361 457.487,-47.9638 486.025,-36.0729"/>
<polygon fill="black" stroke="black" points="487.442,-39.2743 495.326,-32.1973 484.75,-32.8127 487.442,-39.2743"/>
</g>
<!-- 3225050 -->
<g id="node3" class="node"><title>3225050</title>
<g id="a_node3"><a xlink:href="3225050.svg" xlink:title="receive_message">
<ellipse fill="none" stroke="black" stroke-width="2.5" cx="359" cy="-162" rx="70.0177" ry="18"/>
<text text-anchor="middle" x="359" y="-157.8" font-family="Times,serif" font-size="14.00">receive_message</text>
</a>
</g>
</g>
<!-- 3225050&#45;&gt;3225047 -->
<g id="edge2" class="edge"><title>3225050&#45;&gt;3225047</title>
<path fill="none" stroke="black" d="M359,-143.697C359,-135.983 359,-126.712 359,-118.112"/>
<polygon fill="black" stroke="black" points="362.5,-118.104 359,-108.104 355.5,-118.104 362.5,-118.104"/>
</g>
<!-- 3225051 -->
<g id="node4" class="node"><title>3225051</title>
<g id="a_node4"><a xlink:href="3225051.svg" xlink:title="read_message">
<ellipse fill="none" stroke="black" stroke-width="2.5" cx="507" cy="-162" rx="59.5562" ry="18"/>
<text text-anchor="middle" x="507" y="-157.8" font-family="Times,serif" font-size="14.00">read_message</text>
</a>
</g>
</g>
<!-- 3225051&#45;&gt;3225047 -->
<g id="edge3" class="edge"><title>3225051&#45;&gt;3225047</title>
<path fill="none" stroke="black" d="M476.334,-146.496C454.06,-135.961 423.698,-121.6 399.44,-110.127"/>
<polygon fill="black" stroke="black" points="400.672,-106.838 390.136,-105.726 397.679,-113.166 400.672,-106.838"/>
</g>
</g>
</svg>
