<?xml version="1.0" encoding="UTF-8" standalone="no"?>
<!DOCTYPE svg PUBLIC "-//W3C//DTD SVG 1.1//EN"
 "http://www.w3.org/Graphics/SVG/1.1/DTD/svg11.dtd">
<!-- Generated by graphviz version 2.36.0 (20140111.2315)
 -->
<!-- Title: graph1 Pages: 1 -->
<svg width="297pt" height="188pt"
 viewBox="0.00 0.00 297.00 188.00" xmlns="http://www.w3.org/2000/svg" xmlns:xlink="http://www.w3.org/1999/xlink">
<g id="graph0" class="graph" transform="scale(1 1) rotate(0) translate(4 184)">
<title>graph1</title>
<polygon fill="white" stroke="none" points="-4,4 -4,-184 293,-184 293,4 -4,4"/>
<!-- 3225048 -->
<g id="node1" class="node"><title>3225048</title>
<g id="a_node1"><a xlink:href="3225048.svg" xlink:title="create_message">
<ellipse fill="none" stroke="black" stroke-width="2.5" cx="65" cy="-162" rx="65.3848" ry="18"/>
<text text-anchor="middle" x="65" y="-157.8" font-family="Times,serif" font-size="14.00">create_message</text>
</a>
</g>
</g>
<!-- 3225046 -->
<g id="node2" class="node"><title>3225046</title>
<ellipse fill="none" stroke="black" stroke-dasharray="5,2" cx="142" cy="-90" rx="55.1843" ry="18"/>
<text text-anchor="middle" x="142" y="-85.8" font-family="Times,serif" font-size="14.00">encrypt_sign</text>
</g>
<!-- 3225048&#45;&gt;3225046 -->
<g id="edge1" class="edge"><title>3225048&#45;&gt;3225046</title>
<path fill="none" stroke="black" d="M83.2479,-144.411C93.1966,-135.367 105.667,-124.03 116.557,-114.13"/>
<polygon fill="black" stroke="black" points="119.104,-116.545 124.149,-107.228 114.395,-111.365 119.104,-116.545"/>
</g>
<!-- 3224977 -->
<g id="node4" class="node"><title>3224977</title>
<g id="a_node4"><a xlink:href="3224977.svg" xlink:title="pgp_pub_encrypt_sign_bytea">
<ellipse fill="none" stroke="black" cx="142" cy="-18" rx="114.601" ry="18"/>
<text text-anchor="middle" x="142" y="-13.8" font-family="Times,serif" font-size="14.00">pgp_pub_encrypt_sign_bytea</text>
</a>
</g>
</g>
<!-- 3225046&#45;&gt;3224977 -->
<g id="edge3" class="edge"><title>3225046&#45;&gt;3224977</title>
<path fill="none" stroke="black" d="M142,-71.6966C142,-63.9827 142,-54.7125 142,-46.1124"/>
<polygon fill="black" stroke="black" points="145.5,-46.1043 142,-36.1043 138.5,-46.1044 145.5,-46.1043"/>
</g>
<!-- 3225050 -->
<g id="node3" class="node"><title>3225050</title>
<g id="a_node3"><a xlink:href="3225050.svg" xlink:title="receive_message">
<ellipse fill="none" stroke="black" stroke-width="2.5" cx="219" cy="-162" rx="70.0177" ry="18"/>
<text text-anchor="middle" x="219" y="-157.8" font-family="Times,serif" font-size="14.00">receive_message</text>
</a>
</g>
</g>
<!-- 3225050&#45;&gt;3225046 -->
<g id="edge2" class="edge"><title>3225050&#45;&gt;3225046</title>
<path fill="none" stroke="black" d="M200.752,-144.411C190.803,-135.367 178.333,-124.03 167.443,-114.13"/>
<polygon fill="black" stroke="black" points="169.605,-111.365 159.851,-107.228 164.896,-116.545 169.605,-111.365"/>
</g>
</g>
</svg>
