<?xml version="1.0" encoding="UTF-8" standalone="no"?>
<!DOCTYPE svg PUBLIC "-//W3C//DTD SVG 1.1//EN"
 "http://www.w3.org/Graphics/SVG/1.1/DTD/svg11.dtd">
<!-- Generated by graphviz version 2.36.0 (20140111.2315)
 -->
<!-- Title: graph1 Pages: 1 -->
<svg width="770pt" height="188pt"
 viewBox="0.00 0.00 770.00 188.00" xmlns="http://www.w3.org/2000/svg" xmlns:xlink="http://www.w3.org/1999/xlink">
<g id="graph0" class="graph" transform="scale(1 1) rotate(0) translate(4 184)">
<title>graph1</title>
<polygon fill="white" stroke="none" points="-4,4 -4,-184 766,-184 766,4 -4,4"/>
<!-- 3225051 -->
<g id="node1" class="node"><title>3225051</title>
<ellipse fill="none" stroke="black" stroke-dasharray="5,2" cx="152" cy="-162" rx="59.5562" ry="18"/>
<text text-anchor="middle" x="152" y="-157.8" font-family="Times,serif" font-size="14.00">read_message</text>
</g>
<!-- 3224995 -->
<g id="node2" class="node"><title>3224995</title>
<g id="a_node2"><a xlink:href="3224995.svg" xlink:title="dearmor">
<ellipse fill="none" stroke="black" stroke-width="2.5" cx="39" cy="-90" rx="39.3534" ry="18"/>
<text text-anchor="middle" x="39" y="-85.8" font-family="Times,serif" font-size="14.00">dearmor</text>
</a>
</g>
</g>
<!-- 3225051&#45;&gt;3224995 -->
<g id="edge1" class="edge"><title>3225051&#45;&gt;3224995</title>
<path fill="none" stroke="black" d="M127.202,-145.638C110.494,-135.288 88.3176,-121.551 70.3816,-110.44"/>
<polygon fill="black" stroke="black" points="71.7844,-107.192 61.4402,-104.901 68.0981,-113.143 71.7844,-107.192"/>
</g>
<!-- 3225049 -->
<g id="node3" class="node"><title>3225049</title>
<g id="a_node3"><a xlink:href="3225049.svg" xlink:title="get_message">
<ellipse fill="none" stroke="black" stroke-width="2.5" cx="152" cy="-90" rx="54.9384" ry="18"/>
<text text-anchor="middle" x="152" y="-85.8" font-family="Times,serif" font-size="14.00">get_message</text>
</a>
</g>
</g>
<!-- 3225051&#45;&gt;3225049 -->
<g id="edge2" class="edge"><title>3225051&#45;&gt;3225049</title>
<path fill="none" stroke="black" d="M152,-143.697C152,-135.983 152,-126.712 152,-118.112"/>
<polygon fill="black" stroke="black" points="155.5,-118.104 152,-108.104 148.5,-118.104 155.5,-118.104"/>
</g>
<!-- 3225047 -->
<g id="node4" class="node"><title>3225047</title>
<g id="a_node4"><a xlink:href="3225047.svg" xlink:title="decrypt_verify">
<ellipse fill="none" stroke="black" stroke-width="2.5" cx="424" cy="-90" rx="62.2425" ry="18"/>
<text text-anchor="middle" x="424" y="-85.8" font-family="Times,serif" font-size="14.00">decrypt_verify</text>
</a>
</g>
</g>
<!-- 3225051&#45;&gt;3225047 -->
<g id="edge3" class="edge"><title>3225051&#45;&gt;3225047</title>
<path fill="none" stroke="black" d="M195.702,-149.753C242.865,-137.616 318.068,-118.262 369.166,-105.112"/>
<polygon fill="black" stroke="black" points="370.237,-108.45 379.049,-102.568 368.492,-101.671 370.237,-108.45"/>
</g>
<!-- 3224994 -->
<g id="node5" class="node"><title>3224994</title>
<g id="a_node5"><a xlink:href="3224994.svg" xlink:title="armor">
<ellipse fill="none" stroke="black" cx="135" cy="-18" rx="31.3343" ry="18"/>
<text text-anchor="middle" x="135" y="-13.8" font-family="Times,serif" font-size="14.00">armor</text>
</a>
</g>
</g>
<!-- 3225049&#45;&gt;3224994 -->
<g id="edge4" class="edge"><title>3225049&#45;&gt;3224994</title>
<path fill="none" stroke="black" d="M147.798,-71.6966C145.904,-63.8979 143.623,-54.5085 141.516,-45.8292"/>
<polygon fill="black" stroke="black" points="144.915,-44.9959 139.154,-36.1043 138.113,-46.6479 144.915,-44.9959"/>
</g>
<!-- 3224986 -->
<g id="node6" class="node"><title>3224986</title>
<g id="a_node6"><a xlink:href="3224986.svg" xlink:title="pgp_pub_decrypt_verify_bytea">
<ellipse fill="none" stroke="black" cx="305" cy="-18" rx="121.162" ry="18"/>
<text text-anchor="middle" x="305" y="-13.8" font-family="Times,serif" font-size="14.00">pgp_pub_decrypt_verify_bytea</text>
</a>
</g>
</g>
<!-- 3225047&#45;&gt;3224986 -->
<g id="edge5" class="edge"><title>3225047&#45;&gt;3224986</title>
<path fill="none" stroke="black" d="M397.885,-73.6382C381.572,-64.0422 360.308,-51.5342 342.243,-40.9076"/>
<polygon fill="black" stroke="black" points="343.525,-37.6009 333.131,-35.5475 339.975,-43.6345 343.525,-37.6009"/>
</g>
<!-- 3224992 -->
<g id="node7" class="node"><title>3224992</title>
<g id="a_node7"><a xlink:href="3224992.svg" xlink:title="pgp_pub_signature_keys">
<ellipse fill="none" stroke="black" cx="543" cy="-18" rx="98.2927" ry="18"/>
<text text-anchor="middle" x="543" y="-13.8" font-family="Times,serif" font-size="14.00">pgp_pub_signature_keys</text>
</a>
</g>
</g>
<!-- 3225047&#45;&gt;3224992 -->
<g id="edge6" class="edge"><title>3225047&#45;&gt;3224992</title>
<path fill="none" stroke="black" d="M450.115,-73.6382C466.696,-63.885 488.39,-51.1236 506.642,-40.3869"/>
<polygon fill="black" stroke="black" points="508.444,-43.3878 515.289,-35.3008 504.895,-37.3543 508.444,-43.3878"/>
</g>
<!-- 3224989 -->
<g id="node8" class="node"><title>3224989</title>
<g id="a_node8"><a xlink:href="3224989.svg" xlink:title="pgp_key_id">
<ellipse fill="none" stroke="black" cx="711" cy="-18" rx="51.2958" ry="18"/>
<text text-anchor="middle" x="711" y="-13.8" font-family="Times,serif" font-size="14.00">pgp_key_id</text>
</a>
</g>
</g>
<!-- 3225047&#45;&gt;3224989 -->
<g id="edge7" class="edge"><title>3225047&#45;&gt;3224989</title>
<path fill="none" stroke="black" d="M471.758,-78.4043C517.596,-68.092 588.712,-51.7194 650,-36 654.073,-34.9553 658.291,-33.8432 662.52,-32.7073"/>
<polygon fill="black" stroke="black" points="663.612,-36.0374 672.341,-30.0339 661.773,-29.2831 663.612,-36.0374"/>
</g>
</g>
</svg>
