<?xml version="1.0" encoding="UTF-8" standalone="no"?>
<!DOCTYPE svg PUBLIC "-//W3C//DTD SVG 1.1//EN"
 "http://www.w3.org/Graphics/SVG/1.1/DTD/svg11.dtd">
<!-- Generated by graphviz version 2.36.0 (20140111.2315)
 -->
<!-- Title: graph1 Pages: 1 -->
<svg width="586pt" height="188pt"
 viewBox="0.00 0.00 586.00 188.00" xmlns="http://www.w3.org/2000/svg" xmlns:xlink="http://www.w3.org/1999/xlink">
<g id="graph0" class="graph" transform="scale(1 1) rotate(0) translate(4 184)">
<title>graph1</title>
<polygon fill="white" stroke="none" points="-4,4 -4,-184 582,-184 582,4 -4,4"/>
<!-- 3225052 -->
<g id="node1" class="node"><title>3225052</title>
<ellipse fill="none" stroke="black" stroke-dasharray="5,2" cx="299" cy="-162" rx="97.0323" ry="18"/>
<text text-anchor="middle" x="299" y="-157.8" font-family="Times,serif" font-size="14.00">decode_delivery_receipt</text>
</g>
<!-- 3224995 -->
<g id="node2" class="node"><title>3224995</title>
<g id="a_node2"><a xlink:href="3224995.svg" xlink:title="dearmor">
<ellipse fill="none" stroke="black" stroke-width="2.5" cx="239" cy="-90" rx="39.3534" ry="18"/>
<text text-anchor="middle" x="239" y="-85.8" font-family="Times,serif" font-size="14.00">dearmor</text>
</a>
</g>
</g>
<!-- 3225052&#45;&gt;3224995 -->
<g id="edge1" class="edge"><title>3225052&#45;&gt;3224995</title>
<path fill="none" stroke="black" d="M284.476,-144.055C276.997,-135.33 267.752,-124.544 259.555,-114.981"/>
<polygon fill="black" stroke="black" points="262.143,-112.622 252.977,-107.307 256.828,-117.177 262.143,-112.622"/>
</g>
<!-- 3225047 -->
<g id="node3" class="node"><title>3225047</title>
<g id="a_node3"><a xlink:href="3225047.svg" xlink:title="decrypt_verify">
<ellipse fill="none" stroke="black" stroke-width="2.5" cx="359" cy="-90" rx="62.2425" ry="18"/>
<text text-anchor="middle" x="359" y="-85.8" font-family="Times,serif" font-size="14.00">decrypt_verify</text>
</a>
</g>
</g>
<!-- 3225052&#45;&gt;3225047 -->
<g id="edge2" class="edge"><title>3225052&#45;&gt;3225047</title>
<path fill="none" stroke="black" d="M313.524,-144.055C320.894,-135.457 329.98,-124.857 338.088,-115.397"/>
<polygon fill="black" stroke="black" points="340.759,-117.659 344.609,-107.789 335.444,-113.104 340.759,-117.659"/>
</g>
<!-- 3224986 -->
<g id="node4" class="node"><title>3224986</title>
<g id="a_node4"><a xlink:href="3224986.svg" xlink:title="pgp_pub_decrypt_verify_bytea">
<ellipse fill="none" stroke="black" cx="121" cy="-18" rx="121.162" ry="18"/>
<text text-anchor="middle" x="121" y="-13.8" font-family="Times,serif" font-size="14.00">pgp_pub_decrypt_verify_bytea</text>
</a>
</g>
</g>
<!-- 3225047&#45;&gt;3224986 -->
<g id="edge3" class="edge"><title>3225047&#45;&gt;3224986</title>
<path fill="none" stroke="black" d="M316.998,-76.6465C279.733,-65.6863 224.814,-49.5336 182.583,-37.1128"/>
<polygon fill="black" stroke="black" points="183.541,-33.7463 172.96,-34.2824 181.566,-40.4619 183.541,-33.7463"/>
</g>
<!-- 3224992 -->
<g id="node5" class="node"><title>3224992</title>
<g id="a_node5"><a xlink:href="3224992.svg" xlink:title="pgp_pub_signature_keys">
<ellipse fill="none" stroke="black" cx="359" cy="-18" rx="98.2927" ry="18"/>
<text text-anchor="middle" x="359" y="-13.8" font-family="Times,serif" font-size="14.00">pgp_pub_signature_keys</text>
</a>
</g>
</g>
<!-- 3225047&#45;&gt;3224992 -->
<g id="edge4" class="edge"><title>3225047&#45;&gt;3224992</title>
<path fill="none" stroke="black" d="M359,-71.6966C359,-63.9827 359,-54.7125 359,-46.1124"/>
<polygon fill="black" stroke="black" points="362.5,-46.1043 359,-36.1043 355.5,-46.1044 362.5,-46.1043"/>
</g>
<!-- 3224989 -->
<g id="node6" class="node"><title>3224989</title>
<g id="a_node6"><a xlink:href="3224989.svg" xlink:title="pgp_key_id">
<ellipse fill="none" stroke="black" cx="527" cy="-18" rx="51.2958" ry="18"/>
<text text-anchor="middle" x="527" y="-13.8" font-family="Times,serif" font-size="14.00">pgp_key_id</text>
</a>
</g>
</g>
<!-- 3225047&#45;&gt;3224989 -->
<g id="edge5" class="edge"><title>3225047&#45;&gt;3224989</title>
<path fill="none" stroke="black" d="M392.997,-74.8345C419.873,-63.6361 457.487,-47.9638 486.025,-36.0729"/>
<polygon fill="black" stroke="black" points="487.442,-39.2743 495.326,-32.1973 484.75,-32.8127 487.442,-39.2743"/>
</g>
</g>
</svg>
