<?xml version="1.0" encoding="UTF-8" standalone="no"?>
<!DOCTYPE svg PUBLIC "-//W3C//DTD SVG 1.1//EN"
 "http://www.w3.org/Graphics/SVG/1.1/DTD/svg11.dtd">
<!-- Generated by graphviz version 2.36.0 (20140111.2315)
 -->
<!-- Title: graph1 Pages: 1 -->
<svg width="126pt" height="188pt"
 viewBox="0.00 0.00 126.00 188.00" xmlns="http://www.w3.org/2000/svg" xmlns:xlink="http://www.w3.org/1999/xlink">
<g id="graph0" class="graph" transform="scale(1 1) rotate(0) translate(4 184)">
<title>graph1</title>
<polygon fill="white" stroke="none" points="-4,4 -4,-184 122,-184 122,4 -4,4"/>
<!-- 3225051 -->
<g id="node1" class="node"><title>3225051</title>
<g id="a_node1"><a xlink:href="3225051.svg" xlink:title="read_message">
<ellipse fill="none" stroke="black" stroke-width="2.5" cx="59" cy="-162" rx="59.5562" ry="18"/>
<text text-anchor="middle" x="59" y="-157.8" font-family="Times,serif" font-size="14.00">read_message</text>
</a>
</g>
</g>
<!-- 3225049 -->
<g id="node2" class="node"><title>3225049</title>
<ellipse fill="none" stroke="black" stroke-dasharray="5,2" cx="59" cy="-90" rx="54.9384" ry="18"/>
<text text-anchor="middle" x="59" y="-85.8" font-family="Times,serif" font-size="14.00">get_message</text>
</g>
<!-- 3225051&#45;&gt;3225049 -->
<g id="edge1" class="edge"><title>3225051&#45;&gt;3225049</title>
<path fill="none" stroke="black" d="M59,-143.697C59,-135.983 59,-126.712 59,-118.112"/>
<polygon fill="black" stroke="black" points="62.5001,-118.104 59,-108.104 55.5001,-118.104 62.5001,-118.104"/>
</g>
<!-- 3224994 -->
<g id="node3" class="node"><title>3224994</title>
<g id="a_node3"><a xlink:href="3224994.svg" xlink:title="armor">
<ellipse fill="none" stroke="black" cx="59" cy="-18" rx="31.3343" ry="18"/>
<text text-anchor="middle" x="59" y="-13.8" font-family="Times,serif" font-size="14.00">armor</text>
</a>
</g>
</g>
<!-- 3225049&#45;&gt;3224994 -->
<g id="edge2" class="edge"><title>3225049&#45;&gt;3224994</title>
<path fill="none" stroke="black" d="M59,-71.6966C59,-63.9827 59,-54.7125 59,-46.1124"/>
<polygon fill="black" stroke="black" points="62.5001,-46.1043 59,-36.1043 55.5001,-46.1044 62.5001,-46.1043"/>
</g>
</g>
</svg>
